<svg width="20" height="20" viewBox="0 0 20 20" fill="none" xmlns="http://www.w3.org/2000/svg">
<circle cx="10" cy="10" r="10" fill="#C3B035"/>
<path d="M3.9056 9.27879C3.83362 9.2067 3.79318 9.10899 3.79318 9.00711C3.79318 8.90524 3.83362 8.80752 3.9056 8.73544L5.71863 6.92226C5.72402 6.91461 5.73117 6.90837 5.73947 6.90406C5.74778 6.89975 5.757 6.8975 5.76636 6.8975C5.77571 6.8975 5.78493 6.89975 5.79324 6.90406C5.80155 6.90837 5.80869 6.91461 5.81408 6.92226L7.80706 8.91526C7.85115 8.9569 7.9095 8.98009 7.97014 8.98009C8.03079 8.98009 8.08914 8.9569 8.13322 8.91526L10.1237 6.92197C10.129 6.91438 10.1362 6.90819 10.1445 6.90392C10.1527 6.89965 10.1619 6.89743 10.1712 6.89743C10.1805 6.89743 10.1897 6.89965 10.198 6.90392C10.2063 6.90819 10.2134 6.91438 10.2188 6.92197L12.2121 8.91526C12.2562 8.9569 12.3145 8.98009 12.3752 8.98009C12.4358 8.98009 12.4942 8.9569 12.5382 8.91526L14.5285 6.92226C14.5337 6.91437 14.5408 6.90788 14.5491 6.90338C14.5574 6.89888 14.5667 6.89651 14.5761 6.89648C14.5855 6.89646 14.5948 6.89877 14.6032 6.90321C14.6115 6.90766 14.6186 6.9141 14.6238 6.92196L16.4389 8.73723C16.4746 8.77291 16.5029 8.81526 16.5222 8.86188C16.5415 8.90849 16.5515 8.95845 16.5515 9.0089C16.5515 9.05936 16.5415 9.10932 16.5222 9.15593C16.5029 9.20254 16.4746 9.2449 16.4389 9.28057C16.4033 9.31625 16.3609 9.34455 16.3143 9.36385C16.2677 9.38316 16.2177 9.3931 16.1673 9.3931C16.1168 9.3931 16.0668 9.38316 16.0202 9.36385C15.9736 9.34454 15.9313 9.31624 15.8956 9.28056L14.7397 8.12484C14.6965 8.08161 14.6378 8.05732 14.5767 8.0573H14.5765C14.5154 8.05732 14.4568 8.08161 14.4135 8.12484L12.4213 10.1199C12.4091 10.132 12.3927 10.1387 12.3756 10.1387C12.3585 10.1387 12.3421 10.132 12.3299 10.1199L10.3347 8.12484C10.2914 8.08162 10.2328 8.05732 10.1717 8.0573H10.1715C10.1104 8.05732 10.0518 8.08161 10.0085 8.12484L8.01629 10.1199C8.00413 10.132 7.9877 10.1387 7.97059 10.1387C7.95347 10.1387 7.93705 10.132 7.92488 10.1199L5.92935 8.12454C5.90795 8.10313 5.88254 8.08614 5.85457 8.07455C5.8266 8.06296 5.79662 8.057 5.76635 8.057C5.73607 8.057 5.70609 8.06296 5.67813 8.07455C5.65016 8.08614 5.62475 8.10313 5.60334 8.12454L4.44895 9.27879C4.37674 9.35053 4.27907 9.3908 4.17728 9.3908C4.07548 9.3908 3.97782 9.35053 3.9056 9.27879ZM14.6181 10.4015C14.6127 10.396 14.6062 10.3915 14.599 10.3886C14.5919 10.3856 14.5842 10.3841 14.5764 10.3841C14.5686 10.384 14.5608 10.3855 14.5536 10.3885C14.5463 10.3915 14.5397 10.3959 14.5342 10.4015L12.5382 12.4005C12.495 12.4437 12.4364 12.468 12.3752 12.468H12.3751C12.3139 12.468 12.2553 12.4437 12.2121 12.4005L10.2131 10.4015C10.2077 10.3959 10.2012 10.3915 10.194 10.3886C10.1869 10.3856 10.1792 10.3841 10.1714 10.3841C10.1635 10.384 10.1558 10.3855 10.1485 10.3885C10.1413 10.3915 10.1347 10.3959 10.1292 10.4015L8.13322 12.4005C8.08998 12.4437 8.03135 12.468 7.97021 12.468H7.97006C7.90893 12.468 7.8503 12.4437 7.80706 12.4005L5.80823 10.4015C5.79639 10.3919 5.78161 10.3866 5.76636 10.3866C5.75111 10.3866 5.73632 10.3919 5.72448 10.4015L3.9056 12.2204C3.83351 12.2924 3.793 12.3902 3.79297 12.4921C3.79294 12.594 3.8334 12.6918 3.90546 12.7639C3.97751 12.836 4.07525 12.8765 4.17718 12.8765C4.2791 12.8765 4.37686 12.8361 4.44895 12.764L5.60334 11.6098C5.62475 11.5884 5.65016 11.5714 5.67813 11.5598C5.7061 11.5482 5.73607 11.5422 5.76635 11.5422C5.79662 11.5422 5.8266 11.5482 5.85457 11.5598C5.88253 11.5714 5.90795 11.5884 5.92935 11.6098L7.92189 13.6022C7.93486 13.615 7.95236 13.6221 7.97057 13.622C7.98879 13.622 8.00625 13.6147 8.01914 13.6019L10.0085 11.6101C10.0299 11.5887 10.0554 11.5717 10.0833 11.5601C10.1113 11.5485 10.1413 11.5425 10.1716 11.5425C10.2019 11.5425 10.2319 11.5485 10.2599 11.5601C10.2878 11.5717 10.3133 11.5887 10.3347 11.6101L12.3268 13.6021C12.3398 13.6149 12.3573 13.6221 12.3755 13.622C12.3938 13.622 12.4113 13.6147 12.4242 13.6019L14.4136 11.6101C14.4568 11.5668 14.5154 11.5425 14.5766 11.5425H14.5767C14.6378 11.5425 14.6965 11.5668 14.7397 11.6101L15.8956 12.7658C15.9677 12.8379 16.0655 12.8783 16.1674 12.8783C16.2693 12.8783 16.3671 12.8378 16.4391 12.7657C16.5112 12.6936 16.5516 12.5958 16.5516 12.4939C16.5516 12.392 16.511 12.2942 16.4389 12.2222L14.6181 10.4015Z" fill="white"/>
</svg>
