<svg width="58" height="58" viewBox="0 0 58 58" fill="none" xmlns="http://www.w3.org/2000/svg">
<g clip-path="url(#clip0_889_2572)">
<circle cx="29" cy="29" r="29" fill="#C34335"/>
<path d="M18.6439 16.3004C23.6895 16.3004 27.7941 21.8072 27.7941 28.5759V45.189C27.795 45.508 27.9224 45.8136 28.1482 46.0388C28.3741 46.2641 28.6801 46.3906 28.9991 46.3906C29.318 46.3906 29.624 46.2641 29.8499 46.0388C30.0757 45.8136 30.2031 45.508 30.204 45.189V28.5759C30.204 21.8073 34.3086 16.3004 39.3542 16.3004C40.8911 16.3461 42.3842 16.8235 43.6626 17.6779C44.941 18.5323 45.9531 19.7292 46.5832 21.1318C46.6609 21.3461 46.7955 21.5352 46.9725 21.6787C47.1496 21.8222 47.3624 21.9149 47.5881 21.9466C47.8138 21.9783 48.0439 21.948 48.2537 21.8589C48.4635 21.7697 48.645 21.6251 48.7788 21.4406C48.8854 21.2911 48.9559 21.119 48.985 20.9378C49.014 20.7565 49.0008 20.571 48.9464 20.3957C47.6421 16.1705 43.0306 13.8906 39.3542 13.8906C35.4255 13.8906 31.7953 16.4181 29.6434 20.6513C29.5764 20.7622 29.4819 20.854 29.369 20.9177C29.2561 20.9814 29.1287 21.0149 28.9991 21.0149C28.8694 21.0149 28.742 20.9814 28.6291 20.9177C28.5163 20.854 28.4217 20.7622 28.3547 20.6513C26.2028 16.4181 22.5726 13.8906 18.6439 13.8906C14.9675 13.8906 10.356 16.1705 9.0522 20.3957C8.99854 20.5724 8.98604 20.759 9.01567 20.9413C9.04529 21.1236 9.11626 21.2967 9.22312 21.4473C9.32998 21.5979 9.4699 21.722 9.63216 21.8102C9.79442 21.8984 9.97472 21.9482 10.1592 21.956C10.4305 21.978 10.7013 21.9089 10.9288 21.7595C11.1563 21.6101 11.3274 21.389 11.415 21.1314C12.0451 19.7289 13.0573 18.532 14.3357 17.6777C15.614 16.8234 17.107 16.3461 18.6439 16.3004Z" fill="white"/>
</g>
<defs>
<clipPath id="clip0_889_2572">
<rect width="58" height="58" fill="white"/>
</clipPath>
</defs>
</svg>
