<svg width="58" height="58" viewBox="0 0 58 58" fill="none" xmlns="http://www.w3.org/2000/svg">
<g clip-path="url(#clip0_889_2587)">
<circle cx="29" cy="29" r="29" fill="#36AF5A"/>
<path d="M28.6402 13.3989C28.8379 13.3989 29.0356 13.4089 29.2324 13.4289C30.7202 13.6233 32.085 14.3569 33.0681 15.4905C34.0512 16.6241 34.5842 18.079 34.5662 19.5794L34.5746 40.567C34.5903 41.763 34.4011 42.9529 34.0152 44.0852C33.5549 45.0926 32.8964 45.997 32.079 46.7445C31.2617 47.492 30.3021 48.0673 29.2577 48.436C28.9998 48.5066 28.7714 48.6584 28.6064 48.8688C28.4413 49.0792 28.3484 49.3372 28.3412 49.6045C28.3409 49.793 28.3845 49.979 28.4686 50.1477C28.5527 50.3163 28.6749 50.4631 28.8257 50.5762C28.9716 50.6881 29.1416 50.7645 29.3221 50.7992C29.5027 50.8339 29.6889 50.8261 29.8658 50.7763C32.2569 50.0662 34.3036 48.5021 35.6167 46.3814C35.666 46.2868 35.7357 46.2043 35.8209 46.14C35.906 46.0756 36.0043 46.031 36.1088 46.0093C36.2133 45.9877 36.3213 45.9895 36.425 46.0147C36.5287 46.0399 36.6255 46.0879 36.7083 46.1551C38.0082 47.188 39.6228 47.7443 41.2831 47.7313C44.9864 47.7313 48 45.1145 48 41.8975C48 38.6857 44.9742 36.0727 41.254 36.0727C40.1288 36.0655 39.0172 36.3187 38.0061 36.8125C37.8964 36.8674 37.7745 36.8933 37.652 36.8878C37.5294 36.8823 37.4104 36.8455 37.306 36.781C37.2017 36.7165 37.1156 36.6264 37.0559 36.5192C36.9962 36.4121 36.965 36.2914 36.9651 36.1687V19.6627C36.9962 17.5265 36.2271 15.4558 34.8091 13.8578C33.391 12.2597 31.4265 11.2499 29.3017 11.0267C27.9147 10.9153 26.5219 11.1538 25.2511 11.7206C23.9803 12.2873 22.8721 13.164 22.0282 14.2704C21.9582 14.3533 21.8709 14.4199 21.7725 14.4656C21.6741 14.5113 21.5669 14.535 21.4584 14.535C21.3499 14.535 21.2427 14.5113 21.1443 14.4656C21.0459 14.4199 20.9587 14.3533 20.8887 14.2704C19.7775 12.8297 18.2308 11.7862 16.4789 11.2952C16.3047 11.246 16.1215 11.2382 15.9438 11.2725C15.7661 11.3067 15.5989 11.3821 15.4555 11.4924C15.3135 11.5996 15.1985 11.7384 15.1194 11.8978C15.0404 12.0572 14.9995 12.2328 15.0001 12.4108C14.9962 12.6872 15.0846 12.957 15.2513 13.1775C15.4179 13.3981 15.6534 13.5568 15.9203 13.6285C17.1573 13.9886 18.2446 14.7392 19.0197 15.7683C19.7947 16.7975 20.216 18.0497 20.2205 19.3381V36.8022C20.2214 37.1299 20.3523 37.4439 20.5843 37.6754C20.8163 37.9068 21.1307 38.0367 21.4584 38.0367C21.7861 38.0367 22.1005 37.9068 22.3325 37.6754C22.5646 37.4439 22.6954 37.1299 22.6963 36.8022V19.3381C22.697 17.7623 23.3236 16.2514 24.4383 15.1376C25.5529 14.0238 27.0644 13.3984 28.6401 13.3989H28.6402ZM41.2831 45.3324C38.902 45.3324 36.9651 43.7914 36.9651 41.8975C36.9935 41.3667 37.1508 40.8508 37.4233 40.3944C37.6958 39.938 38.0753 39.5548 38.5291 39.278C39.3361 38.7421 40.2855 38.4612 41.2541 38.4716C43.6239 38.4716 45.6011 40.0403 45.6011 41.8976C45.6011 43.7914 43.6642 45.3324 41.2831 45.3324Z" fill="white"/>
</g>
<defs>
<clipPath id="clip0_889_2587">
<rect width="58" height="58" fill="white"/>
</clipPath>
</defs>
</svg>
