<svg width="20" height="20" viewBox="0 0 20 20" fill="none" xmlns="http://www.w3.org/2000/svg">
<circle cx="10" cy="10" r="10" fill="#C3B035"/>
<path d="M16.5513 14.2797C16.5512 14.3816 16.5106 14.4793 16.4386 14.5513C16.3666 14.6233 16.2689 14.6639 16.167 14.664H4.17829C4.12774 14.6641 4.07766 14.6543 4.03091 14.635C3.98417 14.6158 3.94168 14.5875 3.90589 14.5518C3.8701 14.5161 3.8417 14.4737 3.82232 14.427C3.80294 14.3803 3.79297 14.3303 3.79297 14.2797C3.79297 14.2292 3.80294 14.1791 3.82232 14.1324C3.8417 14.0857 3.8701 14.0433 3.90589 14.0076C3.94168 13.9719 3.98417 13.9436 4.03091 13.9244C4.07766 13.9052 4.12774 13.8953 4.17829 13.8955H16.167C16.2689 13.8956 16.3666 13.9361 16.4386 14.0081C16.5106 14.0801 16.5512 14.1778 16.5513 14.2797ZM4.17829 12.2047H8.32824C8.43015 12.2047 8.52789 12.1643 8.59995 12.0922C8.67202 12.0201 8.7125 11.9224 8.7125 11.8205C8.7125 11.7186 8.67202 11.6208 8.59995 11.5488C8.52789 11.4767 8.43015 11.4362 8.32824 11.4362H7.90405C7.87335 11.4362 7.84295 11.4301 7.81464 11.4182C7.78634 11.4063 7.7607 11.3889 7.73924 11.3669C7.27216 10.8882 6.95667 10.2823 6.83225 9.62513C6.70783 8.96797 6.78002 8.2887 7.03977 7.67237C7.29953 7.05603 7.73531 6.53 8.29257 6.16013C8.84983 5.79026 9.50381 5.59298 10.1726 5.59298C10.8415 5.59298 11.4955 5.79026 12.0527 6.16013C12.61 6.53 13.0458 7.05603 13.3055 7.67237C13.5653 8.2887 13.6375 8.96797 13.513 9.62513C13.3886 10.2823 13.0731 10.8882 12.6061 11.3669C12.5846 11.3889 12.559 11.4063 12.5307 11.4182C12.5023 11.4301 12.4719 11.4362 12.4412 11.4362H12.0171C11.9151 11.4362 11.8174 11.4767 11.7453 11.5488C11.6733 11.6208 11.6328 11.7186 11.6328 11.8205C11.6328 11.9224 11.6733 12.0201 11.7453 12.0922C11.8174 12.1643 11.9151 12.2047 12.0171 12.2047H16.167C16.2201 12.2048 16.2726 12.1939 16.3212 12.1727C16.3698 12.1515 16.4135 12.1204 16.4496 12.0815C16.4856 12.0425 16.5131 11.9965 16.5305 11.9464C16.5478 11.8962 16.5546 11.8431 16.5504 11.7902C16.5379 11.6908 16.4891 11.5996 16.4133 11.5342C16.3375 11.4688 16.2401 11.4339 16.14 11.4362H13.9752C13.9347 11.4362 13.8948 11.4255 13.8597 11.4051C13.8246 11.3848 13.7955 11.3555 13.7753 11.3203C13.7551 11.2851 13.7446 11.2452 13.7447 11.2046C13.7449 11.1641 13.7558 11.1242 13.7762 11.0892C14.1495 10.4496 14.3445 9.72162 14.3409 8.98107C14.3268 7.91815 13.9112 6.89989 13.1777 6.13054C12.4442 5.3612 11.4468 4.89766 10.3858 4.83293C9.63617 4.79512 8.89024 4.96027 8.22664 5.31098C7.56304 5.66168 7.00636 6.18494 6.6153 6.82558C6.22424 7.46622 6.01328 8.20052 6.00467 8.95104C5.99605 9.70156 6.19011 10.4405 6.56637 11.0899C6.58675 11.125 6.59753 11.1648 6.59763 11.2053C6.59772 11.2458 6.58713 11.2856 6.56691 11.3208C6.54669 11.3559 6.51757 11.3851 6.48247 11.4053C6.44738 11.4256 6.40757 11.4363 6.36704 11.4362H4.17829C4.07672 11.4373 3.97962 11.4782 3.90779 11.55C3.83597 11.6218 3.79513 11.7189 3.79404 11.8205C3.79413 11.9224 3.83465 12.0201 3.90669 12.0921C3.97873 12.1641 4.07641 12.2046 4.17829 12.2047Z" fill="white"/>
</svg>
