<svg width="58" height="58" viewBox="0 0 58 58" fill="none" xmlns="http://www.w3.org/2000/svg">
<g clip-path="url(#clip0_889_2578)">
<circle cx="29" cy="29" r="29" fill="#3772C0"/>
<path d="M41.4492 48.7498H41.4488C41.3167 48.8498 41.1656 48.9216 41.0047 48.961C40.8438 49.0004 40.6766 49.0064 40.5133 48.9788C40.35 48.9511 40.194 48.8903 40.0551 48.8001C39.9162 48.7099 39.7972 48.5922 39.7055 48.4543C36.1909 43.2365 34.1497 37.1668 33.7975 30.8856C33.7867 30.7016 33.706 30.5287 33.5719 30.4022C33.4378 30.2758 33.2605 30.2053 33.0762 30.2053H24.8428C24.6585 30.2053 24.4812 30.2758 24.3471 30.4022C24.213 30.5287 24.1323 30.7016 24.1215 30.8856C23.7693 37.1668 21.7282 43.2365 18.2136 48.4543C18.127 48.5867 18.0152 48.7008 17.8845 48.7901C17.7539 48.8793 17.6069 48.9419 17.452 48.9744C17.2971 49.0068 17.1374 49.0085 16.9819 48.9792C16.8264 48.9499 16.6782 48.8903 16.5457 48.8037C16.4133 48.7171 16.2992 48.6053 16.2099 48.4746C16.1207 48.344 16.058 48.197 16.0256 48.0421C15.9932 47.8873 15.9915 47.7275 16.0208 47.572C16.0501 47.4165 16.1097 47.2683 16.1963 47.1358C19.4345 42.3341 21.3327 36.7553 21.695 30.975C21.7014 30.8764 21.6875 30.7774 21.6541 30.6844C21.6208 30.5913 21.5687 30.506 21.5011 30.4339C21.4335 30.3617 21.3518 30.3042 21.2611 30.2649C21.1703 30.2256 21.0725 30.2053 20.9736 30.2053H18.0122C17.6927 30.2053 17.3863 30.0783 17.1604 29.8524C16.9345 29.6265 16.8076 29.3202 16.8076 29.0007C16.8076 28.6812 16.9345 28.3748 17.1604 28.1489C17.3863 27.923 17.6927 27.7961 18.0122 27.7961H21.0024C21.1001 27.7961 21.1968 27.7762 21.2867 27.7377C21.3765 27.6992 21.4576 27.6429 21.5251 27.5722C21.5926 27.5015 21.645 27.4178 21.6792 27.3263C21.7134 27.2347 21.7287 27.1372 21.7242 27.0395C21.4799 21.2872 19.7272 15.7003 16.642 10.8392C16.4762 10.5674 16.4246 10.2411 16.4987 9.9315C16.5727 9.62189 16.7662 9.35416 17.037 9.18681C17.3078 9.01946 17.6339 8.96609 17.9439 9.03836C18.2539 9.11063 18.5227 9.30266 18.6916 9.57251C22.0328 14.8297 23.9198 20.879 24.1601 27.1035C24.1681 27.2898 24.2476 27.4658 24.3822 27.5948C24.5167 27.7239 24.6959 27.796 24.8823 27.7961H33.0367C33.2231 27.796 33.4023 27.7239 33.5369 27.5948C33.6714 27.4658 33.751 27.2898 33.7589 27.1035C33.9992 20.879 35.8862 14.8297 39.2274 9.5725C39.3105 9.43773 39.4193 9.32067 39.5477 9.22799C39.676 9.13531 39.8214 9.06885 39.9754 9.03239C40.1295 8.99592 40.2892 8.99019 40.4455 9.0155C40.6018 9.04081 40.7516 9.09668 40.8862 9.17991C41.0209 9.26313 41.1378 9.37209 41.2304 9.50054C41.3229 9.629 41.3892 9.77443 41.4255 9.92853C41.4618 10.0826 41.4674 10.2424 41.4419 10.3986C41.4164 10.5549 41.3604 10.7046 41.277 10.8392C38.1918 15.7003 36.4391 21.2872 36.1948 27.0395C36.1903 27.1371 36.2056 27.2347 36.2398 27.3262C36.2741 27.4178 36.3265 27.5015 36.394 27.5722C36.4614 27.6429 36.5425 27.6992 36.6324 27.7377C36.7222 27.7762 36.8189 27.7961 36.9167 27.7961H39.9068C40.2263 27.7961 40.5327 27.923 40.7586 28.1489C40.9845 28.3748 41.1114 28.6812 41.1114 29.0007C41.1114 29.3202 40.9845 29.6265 40.7586 29.8524C40.5327 30.0783 40.2263 30.2052 39.9068 30.2052H36.9453C36.8465 30.2053 36.7486 30.2256 36.6579 30.2649C36.5672 30.3042 36.4855 30.3617 36.4179 30.4339C36.3503 30.506 36.2982 30.5913 36.2649 30.6843C36.2315 30.7774 36.2176 30.8764 36.224 30.975C36.5863 36.7553 38.4845 42.3341 41.7226 47.1358C41.8907 47.3892 41.956 47.6971 41.9052 47.9969C41.8544 48.2967 41.6914 48.5659 41.4492 48.7498Z" fill="white"/>
</g>
<defs>
<clipPath id="clip0_889_2578">
<rect width="58" height="58" fill="white"/>
</clipPath>
</defs>
</svg>
