<svg width="20" height="20" viewBox="0 0 21 20" fill="none" xmlns="http://www.w3.org/2000/svg">
<ellipse cx="10.0826" cy="10" rx="10.0826" ry="10" fill="#C34335"/>
<path d="M7.03007 9.19742C6.95754 9.1974 6.88663 9.21932 6.82632 9.26039C6.76601 9.30147 6.719 9.35987 6.69125 9.42819C6.66349 9.49651 6.65624 9.57169 6.6704 9.64422C6.68456 9.71675 6.71951 9.78337 6.77081 9.83564L8.2095 11.3025C8.22994 11.3233 8.24615 11.3481 8.25721 11.3753C8.26827 11.4025 8.27396 11.4317 8.27396 11.4611C8.27396 11.4906 8.26827 11.5197 8.25721 11.547C8.24615 11.5742 8.22994 11.5989 8.2095 11.6197L4.15699 15.7525C4.09049 15.8154 4.04778 15.9001 4.03631 15.9919C4.02484 16.0836 4.04535 16.1766 4.09425 16.2545C4.12512 16.299 4.16515 16.3361 4.21154 16.3632C4.25793 16.3903 4.30957 16.4068 4.36285 16.4114C4.41613 16.4161 4.46976 16.4088 4.52 16.3902C4.57025 16.3715 4.61589 16.3419 4.65374 16.3034L8.7283 12.1486C8.77035 12.108 8.826 12.0855 8.88386 12.0855C8.94171 12.0855 8.99737 12.108 9.03941 12.1486L10.4787 13.6162C10.5475 13.6863 10.6407 13.7256 10.738 13.7256C10.8352 13.7256 10.9285 13.6862 10.9973 13.6161C11.066 13.546 11.1047 13.4509 11.1046 13.3517C11.1046 13.2525 11.066 13.1574 10.9972 13.0873L9.55794 11.6197C9.53751 11.5989 9.5213 11.5742 9.51024 11.547C9.49918 11.5197 9.49349 11.4906 9.49349 11.4611C9.49349 11.4317 9.49918 11.4025 9.51024 11.3753C9.5213 11.3481 9.53751 11.3233 9.55794 11.3025L15.0907 5.66036C15.1214 5.62899 15.1606 5.60763 15.2033 5.59896C15.2459 5.5903 15.2902 5.59472 15.3304 5.61168C15.3706 5.62864 15.4049 5.65737 15.4291 5.69424C15.4533 5.73111 15.4662 5.77446 15.4662 5.81882L15.4671 7.78255C15.4638 7.87514 15.4924 7.966 15.548 8.0393C15.6036 8.1126 15.6826 8.16371 15.7713 8.18373C15.8242 8.19307 15.8784 8.19052 15.9301 8.17626C15.9819 8.16199 16.03 8.13636 16.071 8.10116C16.112 8.06596 16.145 8.02204 16.1676 7.97247C16.1902 7.92291 16.2019 7.8689 16.2019 7.81424L16.2005 4.05519C16.2005 4.04067 16.1949 4.02675 16.1848 4.01645C16.1748 4.00616 16.1611 4.00034 16.1469 4.00028H12.4992C12.4085 3.99682 12.3194 4.02594 12.2476 4.08254C12.1758 4.13915 12.1257 4.21966 12.1061 4.31004C12.097 4.36384 12.0994 4.41904 12.1134 4.47177C12.1273 4.5245 12.1524 4.57348 12.1869 4.61528C12.2214 4.65708 12.2644 4.69069 12.3129 4.71375C12.3615 4.7368 12.4144 4.74875 12.468 4.74876H14.4163C14.4598 4.74871 14.5024 4.76184 14.5386 4.78648C14.5748 4.81113 14.603 4.84617 14.6197 4.88718C14.6363 4.92819 14.6407 4.97331 14.6322 5.01684C14.6237 5.06037 14.6027 5.10034 14.5719 5.13169L9.03913 10.7737C8.99708 10.8142 8.94142 10.8368 8.88357 10.8368C8.82572 10.8368 8.77006 10.8142 8.72802 10.7737L7.28933 9.30681C7.25535 9.27202 7.21494 9.24444 7.17044 9.22566C7.12593 9.20689 7.07823 9.19729 7.03007 9.19742Z" fill="white"/>
</svg>
