<svg width="58" height="58" viewBox="0 0 58 58" fill="none" xmlns="http://www.w3.org/2000/svg">
<g clip-path="url(#clip0_889_2605)">
<circle cx="29" cy="29" r="29" fill="#3772C0"/>
<path d="M27.9089 18.6914C28.6416 18.6897 29.3451 18.9791 29.8646 19.496C30.3841 20.013 30.6771 20.7152 30.6793 21.4483V34.8764C30.6812 36.6015 31.3671 38.2554 32.5863 39.4752C33.8056 40.695 35.4587 41.3812 37.183 41.3831H43.1835C43.3156 41.3832 43.4448 41.4224 43.5547 41.4959C43.6645 41.5694 43.7502 41.6738 43.8007 41.7959C43.8513 41.9181 43.8646 42.0525 43.8389 42.1822C43.8132 42.3119 43.7496 42.431 43.6562 42.5246L40.0822 46.1046C39.8735 46.3144 39.7563 46.5984 39.7565 46.8944C39.7567 47.1904 39.8741 47.4743 40.0831 47.6838C40.296 47.8868 40.5787 48 40.8728 48C41.1668 48 41.4496 47.8868 41.6624 47.6838L48.9523 40.3835C48.9828 40.353 49 40.3115 49 40.2683C49 40.2251 48.9828 40.1837 48.9523 40.1531L41.6773 32.8743C41.4681 32.665 41.1843 32.5474 40.8885 32.5474C40.5926 32.5474 40.3089 32.665 40.0997 32.8743C39.8905 33.0836 39.7729 33.3674 39.7729 33.6634C39.7729 33.9594 39.8905 34.2433 40.0997 34.4526L43.6562 38.0113C43.7499 38.1048 43.8137 38.224 43.8395 38.3538C43.8654 38.4836 43.8522 38.6181 43.8016 38.7404C43.751 38.8627 43.6652 38.9672 43.5552 39.0407C43.4451 39.1141 43.3158 39.1533 43.1835 39.1532H37.1517C36.0265 39.152 34.9478 38.7042 34.1523 37.9082C33.3567 37.1122 32.9093 36.0329 32.9082 34.9073V21.6804C32.9032 20.9767 32.7598 20.2809 32.4859 19.6327C32.2121 18.9845 31.8133 18.3966 31.3123 17.9027C30.4163 16.9914 29.1953 16.4733 27.9176 16.4624C27.9002 16.4624 27.8828 16.4624 27.8663 16.4629C26.6102 16.4724 25.4057 16.964 24.5012 17.8361C24.3767 17.9563 24.2103 18.0236 24.0372 18.0236C23.8641 18.0236 23.6977 17.9563 23.5731 17.8361C22.8792 17.1825 22.0135 16.7403 21.0774 16.561C20.1414 16.3818 19.1736 16.473 18.2875 16.8239C18.1904 16.8633 18.0854 16.8792 17.981 16.8705C17.8765 16.8617 17.7757 16.8286 17.6864 16.7736C17.5972 16.7187 17.5221 16.6435 17.4673 16.5542C17.4124 16.4649 17.3793 16.3639 17.3707 16.2595C17.2725 15.1095 16.8508 14.0108 16.1544 13.0906C15.4579 12.1705 14.5152 11.4665 13.4354 11.0602C13.2682 11.0019 13.0892 10.9856 12.9142 11.0128C12.7392 11.04 12.5736 11.1098 12.4319 11.2162C12.2902 11.3225 12.1769 11.462 12.1018 11.6225C12.0268 11.783 11.9923 11.9594 12.0014 12.1364C12.009 12.3716 12.0868 12.5992 12.2249 12.7897C12.3631 12.9802 12.5551 13.1249 12.7763 13.2051C13.4826 13.4912 14.0869 13.9825 14.5114 14.6156C14.9358 15.2487 15.1609 15.9945 15.1575 16.7568V37.2021C15.1508 37.4926 15.2522 37.7753 15.4421 37.9953C15.6319 38.2153 15.8966 38.3569 16.1849 38.3928C16.3382 38.4049 16.4923 38.3851 16.6376 38.3346C16.7829 38.2842 16.9161 38.2042 17.029 38.0997C17.1419 37.9952 17.2319 37.8685 17.2934 37.7275C17.3549 37.5865 17.3866 37.4343 17.3864 37.2804V21.5702C17.3762 20.8694 17.625 20.1894 18.085 19.6607C18.5449 19.1319 19.1838 18.7916 19.879 18.7049C20.2612 18.6665 20.6471 18.7092 21.0117 18.8302C21.3763 18.9512 21.7112 19.1477 21.9947 19.407C22.2784 19.666 22.505 19.9812 22.6602 20.3327C22.8153 20.6841 22.8956 21.0641 22.8958 21.4483V37.2805C22.9004 37.5778 23.0218 37.8615 23.2336 38.0701C23.4454 38.2788 23.7308 38.3957 24.0281 38.3957C24.3253 38.3957 24.6107 38.2788 24.8225 38.0701C25.0344 37.8615 25.1557 37.5778 25.1603 37.2805V21.5733C25.1523 20.8762 25.399 20.2001 25.8539 19.6721C26.3089 19.144 26.9409 18.8002 27.6312 18.7054C27.7235 18.6959 27.8162 18.6913 27.9089 18.6914Z" fill="white"/>
</g>
<defs>
<clipPath id="clip0_889_2605">
<rect width="58" height="58" fill="white"/>
</clipPath>
</defs>
</svg>
