<?xml version="1.0" encoding="UTF-8"?>
<svg version="1.1" viewBox="0 0 2048 846" width="1200" height="496" xmlns="http://www.w3.org/2000/svg">
<path transform="translate(826)" d="m0 0h12l21 2 19 4 21 7 16 8 12 8 13 10 17 17 12 16 8 13 7 14 7 21 3 14 1 9v42l-4 22-6 18-9 19-10 16-13 15-12 12-14 11-16 9-15 7-19 6-23 4-24 1-22-2-15-3-16-4-17-7-9-5-2-11-4-6-7-3h-13l-8-7-7-7-10-13-9-14-9-19-5-16-5-25-1-12v-21l2-16 5-20 6-9 18-22 11-14 8-10 9-11 11-14 11-12 16-8 15-6 25-6zm-7 19-15 3-16 6-14 8-13 12-11 13-12 20-6 15-6 21-4 25v35l3 19 6 23 7 19 7 14 6 7 4-2 9-11 13-16 9-11 10-13 12-14 10-13 14-17 8-10 14-17 11-14 11-13 8-10 11-14 10-13 4-6-1-4-8-10-9-10-12-9-16-8-9-3-12-2zm108 70-9 10-11 14-9 11-8 10-13 16-11 14-13 16-11 14-14 17-8 10-11 14-9 11-13 16-11 14-3 4 2 4 8 7 16 8 11 4 10 2h35l16-4 16-8 9-6 10-9 7-8 9-12 12-23 8-24 3-16 1-12v-27l-2-21-4-16-6-17-6-13z" fill="#FEFEFE"/>
<path transform="translate(951,3)" d="m0 0h180l26 3 26 7 21 10 14 10 13 11 12 14 10 15 8 16 5 13 5 22 2 15v45l-4 24-4 15-7 17-8 15-9 12-11 12-9 9-14 11-13 8-15 7-23 8-17 3-11 1h-176v-18l15-1 9-4 8-8 2-3 1-5 1-28 11-21 7-17 5-21 1-15v-42l-1-17-4-16-6-16-6-14-7-12v-20l-3-13-6-8-12-5-16-1zm84 19-2 2v269l3 7 6 5 2 1h82l16-3 16-7 12-8 10-9 8-8 11-16 8-16 5-11 5-16 4-21 1-7v-44l-4-24-5-18-9-20-9-15-11-13-10-9-17-10-12-5-14-3z" fill="#FEFEFE"/>
<path transform="translate(735,4)" d="m0 0h7l-2 4-11 13-10 13-9 11-11 14-13 16-8 10-13 16-8 10-14 17-11 14-13 16-12 15-10 13-9 11-10 13-12 14-9 11-13 16-10 13-20 25-9 11-1 4h179l23-1 27-3-2 5-12 22-3 1-299-1 2-4 12-14 9-11 11-13 9-11 13-16 10-13 12-14 8-10 11-14 12-15 11-14 12-15 11-14 9-11 11-14 14-17 13-17 9-12 7-8 8-11 12-15 7-9 3-4 1-4h-180l-14 4-14 3 2-19 2-10z" fill="#FEFEFE"/>
<path transform="translate(1487,2)" d="m0 0h47l18 3 22 6 16 6 20 11 17 13 9 8 9 11 5 7v2l-12 5-14 8-4-2-13-16-12-12-16-11-16-8-18-6-21-4h-33l-20 4-15 5-16 8-12 8-12 11-11 12-10 14-11 23-6 21-3 22v21l3 21 6 20 11 23 8 12 9 10 7 8 13 11 19 12 15 6 22 6 12 2h33l23-5 20-8 16-9 12-9 16-16 2-1 20 11 5 2-6 7-12 11-15 11-23 12-14 6-25 6-17 3-11 1h-29l-34-5-22-6-18-8-14-7-16-11-11-9-9-8-7-8-10-13-10-17-1-3-1-31v-49l1-54 10-18 9-12 15-16 11-10 19-13 15-8 20-8 27-7z" fill="#FEFEFE"/>
<path transform="translate(1326,1)" d="m0 0h44l1 1-1 17-20 1-10 4-7 5-4 6-2 5-1 6v234l4 11 5 6 9 6 6 2 21 1 1 1v17h-138l-1-4v-9l2-5 17-1 11-4 8-7 4-8 2-47 6-16 6-27 1-14v-42l-2-20-5-20-6-18-1-39-3-9-7-8-6-4-8-2-18-1v-17z" fill="#FEFEFE"/>
<path transform="translate(1512,141)" d="m0 0 4 1 21 21-6 8-12 12h-2l-2 4-4-2-21-21 6-7z" fill="#FEFEFE"/>
<path transform="translate(1113,141)" d="m0 0 4 1 20 20-1 4-21 21-7-6-17-17 6-7z" fill="#FEFEFE"/>
</svg>
