<svg width="90" height="78" viewBox="0 0 90 78" fill="none" xmlns="http://www.w3.org/2000/svg">
<path d="M43.4324 0.271909C43.1794 0.419487 42.821 0.735724 42.6524 0.988714C42.4837 1.2417 32.849 17.8758 21.2326 37.9885C7.0862 62.4653 0.0868066 74.7775 0.0235591 75.3046C-0.250513 77.2231 1.92098 78.6356 3.713 77.708C4.40872 77.3496 2.13181 81.2287 25.0274 41.5304C35.7162 23.041 44.5498 7.90378 44.6552 7.90378C44.7606 7.90378 53.5942 23.041 64.2619 41.5304C87.1786 81.2287 84.9017 77.3496 85.5974 77.708C87.3895 78.6356 89.561 77.2231 89.2869 75.3046C89.2236 74.7775 82.2453 62.4864 68.12 38.0518C56.5247 17.9812 46.89 1.32603 46.7002 1.03088C46.0467 0.061084 44.4866 -0.297319 43.4324 0.271909Z" fill="url(#paint0_linear_2068_3116)"/>
<path d="M43.117 63.0345C40.7136 63.4561 38.6054 65.1006 37.5302 67.4196C37.0453 68.4527 36.9609 68.8954 36.9609 70.5188C36.9609 72.121 37.0453 72.6059 37.5091 73.5968C38.2681 75.1991 39.3222 76.3165 40.9034 77.1808C42.1683 77.8555 42.337 77.8976 44.3398 77.8976C46.1951 77.8976 46.5746 77.8344 47.6076 77.3284C50.6856 75.8105 52.5198 72.2897 51.8452 69.1695C51.1916 66.0914 48.7671 63.6037 46.0053 63.1399C44.4241 62.8869 44.129 62.8658 43.117 63.0345Z" fill="url(#paint1_linear_2068_3116)"/>
<defs>
<linearGradient id="paint0_linear_2068_3116" x1="0" y1="39" x2="89.3104" y2="39" gradientUnits="userSpaceOnUse">
<stop offset="0.025" stop-color="#A47A1E"/>
<stop offset="0.19" stop-color="#D3A84C"/>
<stop offset="0.385" stop-color="#FFEC94"/>
<stop offset="0.58" stop-color="#E6BE69"/>
<stop offset="0.795" stop-color="#FFD87C"/>
</linearGradient>
<linearGradient id="paint1_linear_2068_3116" x1="36.9609" y1="70.4116" x2="51.9845" y2="70.4116" gradientUnits="userSpaceOnUse">
<stop offset="0.025" stop-color="#A47A1E"/>
<stop offset="0.19" stop-color="#D3A84C"/>
<stop offset="0.385" stop-color="#FFEC94"/>
<stop offset="0.58" stop-color="#E6BE69"/>
<stop offset="0.795" stop-color="#FFD87C"/>
</linearGradient>
</defs>
</svg>
