<svg width="17" height="17" viewBox="0 0 17 17" fill="none" xmlns="http://www.w3.org/2000/svg">
<path d="M0.580137 16L4.32014 0.599999H7.18014L10.9201 16H8.94014L7.95014 12.04H3.55014L2.56014 16H0.580137ZM3.88014 10.5H7.62014L5.79414 2.8H5.70614L3.88014 10.5ZM13.5653 16.22C12.5386 16.22 11.666 15.9927 10.9473 15.538C10.2286 15.0687 9.67863 14.262 9.29729 13.118C8.91596 11.9593 8.72529 10.3533 8.72529 8.3C8.72529 6.24667 8.90863 4.648 9.27529 3.504C9.65663 2.34533 10.192 1.53867 10.8813 1.084C11.5706 0.614666 12.392 0.379999 13.3453 0.379999C14.0053 0.379999 14.636 0.423999 15.2373 0.511999C15.8533 0.599999 16.3226 0.702666 16.6453 0.819999V1.81H13.7853C13.1986 1.81 12.6706 1.99333 12.2013 2.36C11.7466 2.72667 11.38 3.37933 11.1013 4.318C10.8373 5.242 10.7053 6.56933 10.7053 8.3C10.7053 10.016 10.8446 11.3433 11.1233 12.282C11.402 13.2207 11.7833 13.8733 12.2673 14.24C12.766 14.6067 13.3453 14.79 14.0053 14.79H16.8653V15.78C16.5426 15.8827 16.0733 15.978 15.4573 16.066C14.856 16.1687 14.2253 16.22 13.5653 16.22Z" fill="#E6BE69"/>
</svg>
