<svg width="17" height="17" viewBox="0 0 17 17" fill="none" xmlns="http://www.w3.org/2000/svg">
<path d="M4.20014 16.22C3.54014 16.22 2.92414 16.1833 2.35214 16.11C1.7948 16.0513 1.23747 15.9413 0.680137 15.78V0.819999C1.23747 0.658666 1.7948 0.548666 2.35214 0.489999C2.92414 0.416666 3.54014 0.379999 4.20014 0.379999C5.37347 0.379999 6.3488 0.614666 7.12614 1.084C7.91814 1.53867 8.5048 2.34533 8.88614 3.504C9.28214 4.648 9.48014 6.24667 9.48014 8.3C9.48014 10.3533 9.28214 11.9593 8.88614 13.118C8.5048 14.262 7.91814 15.0687 7.12614 15.538C6.3488 15.9927 5.37347 16.22 4.20014 16.22ZM2.66014 14.79H4.20014C4.86014 14.79 5.43214 14.6067 5.91614 14.24C6.4148 13.8733 6.80347 13.2207 7.08214 12.282C7.3608 11.3433 7.50014 10.016 7.50014 8.3C7.50014 6.56933 7.3608 5.242 7.08214 4.318C6.80347 3.37933 6.4148 2.72667 5.91614 2.36C5.43214 1.99333 4.86014 1.81 4.20014 1.81H2.66014V14.79ZM13.2098 16.22C12.1832 16.22 11.3105 15.9927 10.5918 15.538C9.87316 15.0687 9.32316 14.262 8.94182 13.118C8.56049 11.9593 8.36982 10.3533 8.36982 8.3C8.36982 6.24667 8.55316 4.648 8.91982 3.504C9.30116 2.34533 9.83649 1.53867 10.5258 1.084C11.2152 0.614666 12.0365 0.379999 12.9898 0.379999C13.6498 0.379999 14.2805 0.423999 14.8818 0.511999C15.4978 0.599999 15.9672 0.702666 16.2898 0.819999V1.81H13.4298C12.8432 1.81 12.3152 1.99333 11.8458 2.36C11.3912 2.72667 11.0245 3.37933 10.7458 4.318C10.4818 5.242 10.3498 6.56933 10.3498 8.3C10.3498 10.016 10.4892 11.3433 10.7678 12.282C11.0465 13.2207 11.4278 13.8733 11.9118 14.24C12.4105 14.6067 12.9898 14.79 13.6498 14.79H16.5098V15.78C16.1872 15.8827 15.7178 15.978 15.1018 16.066C14.5005 16.1687 13.8698 16.22 13.2098 16.22Z" fill="#E6BE69"/>
</svg>
