<svg width="17" height="20" viewBox="0 0 17 20" fill="none" xmlns="http://www.w3.org/2000/svg">
<path fill-rule="evenodd" clip-rule="evenodd" d="M14.8066 13.5501V0.905323C14.8066 0.404813 15.2131 0 15.7227 0C16.2288 0 16.6396 0.396336 16.6396 0.905323V18.9676C16.6396 19.4681 16.2331 19.8729 15.7227 19.8729C15.2165 19.8729 14.8066 19.4766 14.8066 18.9676V15.3565H1.05709C0.550928 15.3565 0.140159 14.9559 0.140159 14.4529C0.140159 13.9541 0.556934 13.5501 1.05709 13.5501H5.63997C7.66458 13.5501 9.3068 11.9317 9.3068 9.93642C9.3068 7.94115 7.6646 6.32276 5.63997 6.32276C3.61533 6.32276 1.97314 7.94115 1.97314 9.93642C1.97314 10.4352 1.56322 10.8401 1.05706 10.8401C0.550907 10.8401 0.140137 10.4352 0.140137 9.93642C0.140137 6.9426 2.60207 4.51636 5.63995 4.51636C8.67782 4.51636 11.1398 6.9426 11.1398 9.93642C11.1398 11.3245 10.6104 12.5905 9.73902 13.5501L14.8066 13.5501Z" fill="#E6BE69"/>
</svg>
