<svg width="10" height="20" viewBox="0 0 10 20" fill="none" xmlns="http://www.w3.org/2000/svg">
<path d="M3.64359 6.67979C3.64359 4.5088 4.72388 2.50481 6.43962 1.27319C3.68596 1.56544 1.52539 3.88255 1.52539 6.67979C1.52539 9.47702 3.68596 11.7941 6.43962 12.0864C4.72388 10.8548 3.64359 8.85078 3.64359 6.67979Z" fill="#E6BE69"/>
<path d="M8.89645 11.8987C6.54525 11.2307 4.89305 9.08058 4.89305 6.67996C4.89305 4.27935 6.54525 2.10836 8.89645 1.46124C9.17182 1.37774 9.36245 1.14812 9.36245 0.85587C9.36245 0.563622 9.17182 0.313123 8.89645 0.250499C8.28217 0.0834996 7.66789 0 7.03243 0C3.28321 0 0.233002 3.00598 0.233002 6.70084C0.233002 9.33107 1.77929 11.6064 4.0034 12.6919V14.8629H0.635461C0.275366 14.8629 0 15.1343 0 15.4892C0 15.844 0.275366 16.1154 0.635461 16.1154H4.02458V19.2466C4.02458 19.6015 4.29995 19.8729 4.66005 19.8729C5.02014 19.8729 5.29551 19.6015 5.29551 19.2466V16.1154H8.47281C8.8329 16.1154 9.10827 15.844 9.10827 15.4892C9.10827 15.1343 8.8329 14.8629 8.47281 14.8629H5.29551V13.1512C5.84624 13.2973 6.43934 13.3808 7.03243 13.3808C7.66789 13.3808 8.28217 13.2973 8.89645 13.1303C9.17182 13.0468 9.36245 12.8172 9.36245 12.5249C9.36245 12.2327 9.17182 11.9822 8.89645 11.8987ZM1.52511 6.67996C1.52511 3.88273 3.68567 1.56562 6.43934 1.27337C4.72359 2.50499 3.64331 4.50898 3.64331 6.67996C3.64331 8.85095 4.72359 10.8549 6.43934 12.0866C3.66449 11.7734 1.52511 9.4772 1.52511 6.67996Z" fill="#E6BE69"/>
</svg>
