<svg width="22" height="17" viewBox="0 0 22 17" fill="none" xmlns="http://www.w3.org/2000/svg">
<path d="M0.325234 16L1.20523 0.599999H3.62523L7.21124 11.16H7.29923L10.8852 0.599999H13.3052L14.1852 16H12.2052L11.5452 4.56H11.4352L8.24523 14.02H6.26523L3.07523 4.56H2.96523L2.30523 16H0.325234ZM18.0404 16.22C17.0137 16.22 16.1411 15.9927 15.4224 15.538C14.7037 15.0687 14.1537 14.262 13.7724 13.118C13.3911 11.9593 13.2004 10.3533 13.2004 8.3C13.2004 6.24667 13.3837 4.648 13.7504 3.504C14.1317 2.34533 14.6671 1.53867 15.3564 1.084C16.0457 0.614666 16.8671 0.379999 17.8204 0.379999C18.4804 0.379999 19.1111 0.423999 19.7124 0.511999C20.3284 0.599999 20.7977 0.702666 21.1204 0.819999V1.81H18.2604C17.6737 1.81 17.1457 1.99333 16.6764 2.36C16.2217 2.72667 15.8551 3.37933 15.5764 4.318C15.3124 5.242 15.1804 6.56933 15.1804 8.3C15.1804 10.016 15.3197 11.3433 15.5984 12.282C15.8771 13.2207 16.2584 13.8733 16.7424 14.24C17.2411 14.6067 17.8204 14.79 18.4804 14.79H21.3404V15.78C21.0177 15.8827 20.5484 15.978 19.9324 16.066C19.3311 16.1687 18.7004 16.22 18.0404 16.22Z" fill="#E6BE69"/>
</svg>
