<svg width="24" height="20" viewBox="0 0 24 20" fill="none" xmlns="http://www.w3.org/2000/svg">
<path d="M23.2594 2.79762L20.7328 0.307622C20.6328 0.21021 20.514 0.132501 20.3841 0.0788694L20.3663 0.0744916V0.0733969C20.243 0.0252372 20.112 6.46657e-05 19.9787 6.46657e-05C19.8465 6.46657e-05 19.7144 0.0252383 19.5911 0.0733969L19.5744 0.0777749V0.0788694C19.4434 0.131406 19.3245 0.21021 19.2246 0.307622L16.6979 2.79762C16.2937 3.20917 16.2992 3.86476 16.7101 4.27082C17.1222 4.67578 17.7863 4.68125 18.205 4.28286L18.9158 3.58565V5.20551C18.9158 8.41681 16.3048 11.0786 12.913 11.5483V3.58571L13.6238 4.28292C13.8226 4.4854 14.0959 4.60141 14.3813 4.6036C14.6678 4.60579 14.9421 4.49524 15.1454 4.29603C15.3475 4.09683 15.4597 3.82539 15.4575 3.5441C15.4541 3.26172 15.3375 2.99358 15.1321 2.79764L12.5988 0.307642C12.4988 0.210229 12.38 0.13252 12.2489 0.0788886L12.2322 0.0745109V0.0734164C12.109 0.0252567 11.9768 8.3905e-05 11.8435 8.3905e-05C11.7103 8.3905e-05 11.5792 0.0252578 11.4559 0.0734164L11.4393 0.0777944L11.4382 0.0788886C11.3082 0.13252 11.1894 0.210229 11.0894 0.307642L8.56277 2.79764C8.1585 3.20919 8.16408 3.86478 8.57499 4.27084C8.98702 4.6758 9.65229 4.68127 10.0699 4.28288L10.7807 3.58567V11.5471C7.38877 11.0775 4.77789 8.41677 4.77789 5.20435V3.58559L5.48868 4.2828C5.90739 4.6812 6.57264 4.67571 6.98356 4.27076C7.39448 3.8647 7.40116 3.20907 6.99689 2.79755L4.46357 0.307558C4.36362 0.210146 4.24478 0.131341 4.11483 0.0788047L4.09595 0.0733322C3.97267 0.0251725 3.84051 0 3.70834 0C3.57507 0 3.44401 0.0251736 3.32073 0.0733322L3.30296 0.0777102V0.0788047C3.17302 0.132437 3.05418 0.210146 2.95422 0.307558L0.427584 2.79755C0.0111177 3.20798 0.0111177 3.87344 0.427584 4.2839C0.844051 4.69323 1.5193 4.69323 1.9358 4.2828L2.64215 3.5856V5.20545C2.64215 9.57143 6.20492 13.1767 10.7773 13.6681V15.7554L9.14913 15.7565C8.56051 15.7565 8.08294 16.2271 8.08294 16.8072C8.08294 17.3873 8.56051 17.8579 9.14913 17.8579H10.7773V18.8222C10.7773 19.4022 11.2549 19.8729 11.8435 19.8729C12.4321 19.8729 12.9097 19.4022 12.9097 18.8222V17.8579H14.5378C15.1265 17.8579 15.604 17.3873 15.604 16.8072C15.604 16.2271 15.1265 15.7565 14.5378 15.7565H12.9097V13.6692C17.482 13.1789 21.0448 9.57252 21.0448 5.20655V3.58557L21.7512 4.28278C22.1676 4.6932 22.8429 4.6932 23.2594 4.28387C23.4593 4.08686 23.5715 3.81869 23.5715 3.54071C23.5715 3.26162 23.4593 2.99456 23.2594 2.79756L23.2594 2.79762Z" fill="#E6BE69"/>
</svg>
