<svg width="21" height="20" viewBox="0 0 21 20" fill="none" xmlns="http://www.w3.org/2000/svg">
<path d="M0.151636 3.48212C0.151636 2.56066 0.523071 1.67694 1.18423 1.02536C1.84539 0.373791 2.74212 0.00774123 3.67714 0.00774131C4.61216 0.00774139 5.50889 0.373792 6.17005 1.02536C6.83121 1.67694 7.20264 2.56066 7.20264 3.48213C7.19988 3.77 7.16269 4.05654 7.09184 4.33583C7.04879 4.50122 6.99495 4.66369 6.93067 4.82224C6.93067 4.82224 6.88031 4.92151 6.85009 4.98107L6.699 5.26895L6.57812 5.43771L6.40689 5.67595L6.26586 5.83478L6.05434 6.04324L5.89317 6.17229C5.82047 6.23734 5.74303 6.29706 5.66149 6.35097L5.48018 6.46017C5.39643 6.51562 5.30892 6.56537 5.21829 6.60907L5.03698 6.68849L4.71464 6.79768L4.55348 6.84731L4.50311 6.84731C3.62389 8.03358 3.15748 9.46823 3.1735 10.9372C3.1735 12.7801 3.91637 14.5475 5.23869 15.8507C6.56101 17.1538 8.35446 17.8859 10.2245 17.8859C12.0945 17.8859 13.888 17.1538 15.2103 15.8507C16.5326 14.5475 17.2755 12.7801 17.2755 10.9372C17.2872 9.475 16.821 8.04797 15.9459 6.86717L15.7847 6.81754L15.4624 6.70834L15.2609 6.60907L14.989 6.46017L14.8177 6.35097C14.7258 6.29832 14.6382 6.23857 14.5558 6.17229L14.3947 6.04324L14.1831 5.83478L14.0421 5.67595L13.8608 5.43771C13.8275 5.37925 13.7905 5.32289 13.75 5.26895C13.6921 5.177 13.6416 5.08075 13.5989 4.98107C13.5682 4.93358 13.5412 4.8838 13.5183 4.83217C13.4541 4.67362 13.4002 4.51114 13.3572 4.34576C13.2855 4.06324 13.2483 3.77332 13.2464 3.48213C13.2449 2.8554 13.4156 2.23997 13.7402 1.70103C14.0648 1.16209 14.5312 0.719711 15.0902 0.420756C15.6491 0.121802 16.2797 -0.0225926 16.9151 0.00286863C17.5505 0.0283299 18.1671 0.222699 18.6996 0.565385C19.232 0.908071 19.6605 1.38631 19.9396 1.94944C20.2188 2.51258 20.3381 3.13963 20.2851 3.76417C20.232 4.38871 20.0086 4.98748 19.6383 5.49705C19.2681 6.00662 18.7649 6.40801 18.1821 6.65871C18.8439 7.85371 19.2198 9.18196 19.2811 10.542C19.3425 11.9021 19.0876 13.258 18.536 14.5061C17.9844 15.7543 17.1507 16.8617 16.0985 17.7438C15.0462 18.6259 13.8034 19.2594 12.4648 19.5958C11.1262 19.9322 9.7273 19.9627 8.37493 19.685C7.02256 19.4072 5.75248 18.8286 4.6617 17.9932C3.57092 17.1578 2.68828 16.0878 2.08121 14.8649C1.47413 13.642 1.15867 12.2986 1.15892 10.9372C1.15786 9.44509 1.53897 7.9769 2.26694 6.66863C1.6371 6.39912 1.10114 5.95373 0.725231 5.38746C0.349319 4.82118 0.149913 4.15881 0.151636 3.48212ZM16.7719 2.00303C16.3729 2.00302 15.9901 2.15854 15.707 2.43564C15.424 2.71274 15.2636 3.08894 15.2609 3.48213C15.2475 3.60752 15.2475 3.73395 15.2609 3.85934C15.3295 4.14892 15.4856 4.41118 15.7086 4.61147C15.9316 4.81175 16.211 4.94063 16.51 4.98107L16.7719 4.98107C17.1726 4.98107 17.5569 4.8242 17.8403 4.54495C18.1236 4.2657 18.2828 3.88697 18.2828 3.49205C18.2828 3.09714 18.1236 2.7184 17.8403 2.43916C17.5569 2.15991 17.1726 2.00303 16.7719 2.00303ZM3.67714 2.00303C3.27641 2.00303 2.8921 2.15991 2.60875 2.43915C2.3254 2.7184 2.16621 3.09714 2.16621 3.49205C2.16621 3.88696 2.3254 4.2657 2.60875 4.54495C2.8921 4.8242 3.27641 4.98107 3.67714 4.98107L3.84838 4.98107C3.96418 4.9672 4.07665 4.93361 4.18078 4.88181L4.3218 4.88181C4.41945 4.83733 4.51087 4.78061 4.59377 4.71305C4.63423 4.69586 4.67164 4.6724 4.70457 4.64356C4.78897 4.56688 4.8634 4.48019 4.92617 4.38547L4.98661 4.31598C5.06736 4.18646 5.12844 4.046 5.16792 3.89905C5.19105 3.76132 5.19781 3.6214 5.18807 3.48212C5.18541 3.08893 5.02505 2.71274 4.74198 2.43564C4.45892 2.15854 4.07612 2.00302 3.67714 2.00303Z" fill="#E6BE69"/>
</svg>
