<svg width="15" height="20" viewBox="0 0 15 20" fill="none" xmlns="http://www.w3.org/2000/svg">
<path d="M14.2666 6.96081C14.2682 5.62777 13.8809 4.32238 13.1509 3.20017C12.4208 2.07796 11.3788 1.18624 10.1489 0.63124C8.9191 0.0762435 7.55329 -0.118626 6.21422 0.069847C4.87516 0.25832 3.6193 0.822191 2.59627 1.69428C1.57324 2.56637 0.826172 3.70991 0.444071 4.98865C0.0619691 6.2674 0.060943 7.62745 0.441115 8.90675C0.821287 10.1861 1.56663 11.3307 2.58834 12.2043C3.61005 13.0779 4.86506 13.6436 6.20384 13.834V14.9067H5.19599C4.92869 14.9067 4.67234 15.0113 4.48333 15.1976C4.29432 15.3839 4.18814 15.6365 4.18814 15.8999C4.18814 16.1634 4.29432 16.416 4.48333 16.6023C4.67234 16.7885 4.92869 16.8932 5.19599 16.8932H6.20384V18.8797C6.20384 19.1431 6.31002 19.3957 6.49903 19.582C6.68804 19.7682 6.94439 19.8729 7.21169 19.8729C7.47899 19.8729 7.73534 19.7682 7.92435 19.582C8.11336 19.3957 8.21954 19.1431 8.21954 18.8797V16.8932H9.22739C9.49469 16.8932 9.75104 16.7885 9.94005 16.6023C10.1291 16.416 10.2352 16.1634 10.2352 15.8999C10.2352 15.6365 10.1291 15.3839 9.94005 15.1976C9.75104 15.0113 9.49469 14.9067 9.22739 14.9067H8.21954V13.834C9.89721 13.5954 11.4316 12.7694 12.542 11.5073C13.6525 10.2452 14.2647 8.63128 14.2666 6.96081ZM2.17244 6.96081C2.17244 5.97859 2.46798 5.01843 3.0217 4.20175C3.57542 3.38506 4.36245 2.74853 5.28325 2.37265C6.20405 1.99677 7.21728 1.89843 8.1948 2.09005C9.17232 2.28167 10.0702 2.75465 10.775 3.44919C11.4797 4.14372 11.9597 5.02861 12.1541 5.99196C12.3486 6.9553 12.2488 7.95383 11.8674 8.86129C11.4859 9.76874 10.8401 10.5443 10.0113 11.09C9.18265 11.6357 8.20836 11.927 7.21169 11.927C5.8752 11.927 4.59344 11.4038 3.6484 10.4724C2.70335 9.54109 2.17244 8.27792 2.17244 6.96081Z" fill="#E6BE69"/>
</svg>
