<svg width="13" height="13" viewBox="0 0 13 13" fill="none" xmlns="http://www.w3.org/2000/svg">
<path d="M0.32 12L3.04 0.799999H5.12L7.84 12H6.4L5.68 9.12H2.48L1.76 12H0.32ZM2.72 8H5.44L4.112 2.4H4.048L2.72 8ZM9.76375 12.16C9.01708 12.16 8.38242 11.9947 7.85975 11.664C7.33708 11.3227 6.93708 10.736 6.65975 9.904C6.38242 9.06133 6.24375 7.89333 6.24375 6.4C6.24375 4.90667 6.37708 3.744 6.64375 2.912C6.92108 2.06933 7.31042 1.48267 7.81175 1.152C8.31308 0.810666 8.91042 0.639999 9.60375 0.639999C10.0838 0.639999 10.5424 0.671999 10.9798 0.735999C11.4278 0.8 11.7691 0.874666 12.0038 0.959999V1.68H9.92375C9.49708 1.68 9.11308 1.81333 8.77175 2.08C8.44108 2.34667 8.17442 2.82133 7.97175 3.504C7.77975 4.176 7.68375 5.14133 7.68375 6.4C7.68375 7.648 7.78508 8.61333 7.98775 9.296C8.19042 9.97867 8.46775 10.4533 8.81975 10.72C9.18242 10.9867 9.60375 11.12 10.0838 11.12H12.1638V11.84C11.9291 11.9147 11.5878 11.984 11.1398 12.048C10.7024 12.1227 10.2438 12.16 9.76375 12.16Z" fill="#E6BE69"/>
</svg>
