<svg width="14" height="14" viewBox="0 0 14 14" fill="none" xmlns="http://www.w3.org/2000/svg">
<path d="M8.03568 0.082715C8.20387 0.106142 8.35767 0.189039 8.46843 0.315956C8.57918 0.442873 8.63933 0.605149 8.63766 0.772537C8.64008 0.936874 8.58289 1.09667 8.47638 1.22313C8.36986 1.3496 8.22103 1.43444 8.05668 1.46236C7.36595 1.5869 6.72294 1.89524 6.19723 2.35401C5.67153 2.81279 5.28316 3.40452 5.07415 4.06517C4.86515 4.72582 4.84347 5.43022 5.01147 6.10213C5.17946 6.77405 5.53073 7.38789 6.02726 7.87722C6.52379 8.36654 7.14666 8.71272 7.82846 8.87828C8.51026 9.04384 9.22503 9.02248 9.8954 8.8165C10.5658 8.61053 11.1662 8.22779 11.6317 7.70971C12.0973 7.19163 12.4101 6.55794 12.5365 5.87722C12.5365 5.69427 12.6103 5.51881 12.7415 5.38944C12.8728 5.26008 13.0508 5.1874 13.2365 5.1874C13.4221 5.1874 13.6002 5.26008 13.7314 5.38944C13.8627 5.51881 13.9364 5.69427 13.9364 5.87722C13.9827 6.21556 14.0038 6.55679 13.9994 6.89816C13.9994 8.2625 13.5889 9.5962 12.8198 10.7306C12.0506 11.865 10.9574 12.7492 9.6784 13.2713C8.39937 13.7934 6.99196 13.93 5.63415 13.6638C4.27633 13.3977 3.0291 12.7407 2.05017 11.7759C1.07125 10.8112 0.404587 9.58206 0.134501 8.24394C-0.135585 6.90581 0.00303268 5.51881 0.532825 4.25832C1.06262 2.99784 1.95979 1.92048 3.11089 1.1625C4.26199 0.40451 5.61531 -6.48499e-05 6.99972 -6.48499e-05C7.34663 0.00251579 7.69288 0.0301838 8.03568 0.082715ZM1.39995 6.89816C1.39838 8.16333 1.83796 9.39062 2.64509 10.3745C3.45221 11.3583 4.57785 12.039 5.83349 12.3025C7.08913 12.566 8.39851 12.3963 9.54233 11.8218C10.6861 11.2474 11.5949 10.303 12.1165 9.14698C11.1113 9.98533 9.82299 10.4207 8.50723 10.3668C7.19147 10.3129 5.94432 9.77363 5.01313 8.85595C4.08195 7.93826 3.53474 6.7092 3.48004 5.41251C3.42533 4.11583 3.86713 2.84625 4.71782 1.85556C3.72946 2.2902 2.89009 2.99779 2.30125 3.89271C1.71242 4.78764 1.39936 5.83156 1.39995 6.89816Z" fill="#E6BE69"/>
</svg>
