<svg width="98" height="99" viewBox="0 0 98 99" fill="none" xmlns="http://www.w3.org/2000/svg">
<path d="M0.0498047 8.83935C0.0498047 5.06812 0.0498047 3.1825 1.22138 2.01093C2.39295 0.839355 4.27857 0.839355 8.0498 0.839355H89.5498C93.321 0.839355 95.2067 0.839355 96.3782 2.01093C97.5498 3.1825 97.5498 5.06812 97.5498 8.83936V90.3394C97.5498 94.1106 97.5498 95.9962 96.3782 97.1678C95.2067 98.3394 93.321 98.3394 89.5498 98.3394H8.0498C4.27857 98.3394 2.39295 98.3394 1.22138 97.1678C0.0498047 95.9962 0.0498047 94.1106 0.0498047 90.3394V8.83935Z" fill="#BBA27C"/>
<ellipse cx="49.0006" cy="39.3581" rx="21.6667" ry="21.6667" fill="#222222"/>
<path fill-rule="evenodd" clip-rule="evenodd" d="M87.1163 98.0882C87.1175 98.2262 87.0055 98.3394 86.8674 98.3394H11.5341C11.396 98.3394 11.2839 98.2262 11.2852 98.0882C11.4427 80.2545 28.3577 65.8394 49.2007 65.8394C70.0437 65.8394 86.9588 80.2545 87.1163 98.0882Z" fill="#222222"/>
</svg>

