<svg width="82" height="80" viewBox="0 0 82 80" fill="none" xmlns="http://www.w3.org/2000/svg">
<g filter="url(#filter0_d_1853_2687)">
<rect x="5" y="1" width="72" height="72" rx="36" fill="url(#paint0_angular_1853_2687)"/>
</g>
<g filter="url(#filter1_d_1853_2687)">
<rect x="9.31982" y="3.88" width="63.36" height="63.36" rx="31.68" fill="#EEEEEE"/>
</g>
<g clip-path="url(#clip0_1853_2687)">
<g filter="url(#filter2_d_1853_2687)">
<path d="M72.3599 30.9616C72.7806 33.9873 72.7864 36.9701 72.3751 39.9565C71.5478 45.9635 69.1565 51.2855 65.2445 55.8934C60.1401 61.9058 53.6828 65.6392 45.8705 66.8439C39.5043 67.8257 33.3342 66.997 27.502 64.2006C21.0877 61.1249 16.2173 56.4117 12.8886 50.1117C11.0113 46.5587 9.8708 42.7786 9.48435 38.7927C8.93652 33.1423 9.739 27.683 12.1283 22.504C15.3246 15.5757 20.3641 10.4154 27.1934 7.02334C30.6528 5.3051 34.327 4.28793 38.1809 3.99162C47.5385 3.27214 55.7307 6.02936 62.6148 12.4227C67.8917 17.3234 71.1227 23.3702 72.2819 30.4985C72.3048 30.6393 72.3322 30.7793 72.3599 30.9616ZM17.7778 37.6906C18.0183 40.5684 18.785 43.3047 20.0694 45.885C22.5514 50.871 26.3344 54.5285 31.4144 56.8231C35.5246 58.6797 39.8295 59.2638 44.2862 58.6388C49.1938 57.9506 53.5191 55.9423 57.0689 52.4909C62.7968 46.922 65.1555 40.089 64.0844 32.1782C63.2757 26.2062 60.4668 21.2507 55.7734 17.4536C50.7998 13.4299 45.0745 11.7461 38.6967 12.3211C35.8533 12.5774 33.1501 13.3591 30.6026 14.6345C25.5423 17.1681 21.8562 21.0331 19.5974 26.2239C18.018 29.8534 17.3878 33.6505 17.7778 37.6906ZM39.7169 11.1469C40.2076 11.1483 40.7042 11.1834 41.1876 11.162C42.933 11.0847 44.6352 11.3371 46.3275 11.7059C46.6575 11.7778 46.8068 11.7104 46.896 11.3623C47.3095 9.74997 47.7514 8.14488 48.1818 6.53685C48.3748 5.81596 48.373 5.81791 47.6562 5.66769C44.8206 5.07339 41.9618 4.78833 39.0632 5.00185C37.3847 5.12549 35.7237 5.3572 34.0816 5.73138C33.6965 5.81912 33.5566 5.94862 33.6782 6.37772C34.1452 8.02471 34.5835 9.68011 35.0067 11.3389C35.1036 11.7186 35.2448 11.8145 35.6308 11.7155C36.9401 11.3797 38.2811 11.2415 39.7169 11.1469ZM18.6381 45.3676C18.2971 44.5654 17.9527 43.7633 17.7236 42.9209C17.625 42.5582 17.4556 42.4927 17.1024 42.5906C15.4693 43.0432 13.8292 43.4706 12.1916 43.9069C11.6331 44.0557 11.612 44.0913 11.7896 44.6651C12.1602 45.862 12.6084 47.029 13.1202 48.1729C14.4987 51.2542 16.356 54.0143 18.6571 56.4809C18.8846 56.7248 19.0452 56.7756 19.309 56.5071C20.5531 55.2409 21.8083 53.9852 23.0793 52.746C23.3633 52.4692 23.3034 52.3137 23.0632 52.0587C21.2206 50.1023 19.7834 47.8739 18.6381 45.3676ZM24.1975 17.8131C24.3417 17.6891 24.4888 17.5683 24.6298 17.4407C27.2301 15.0875 30.1945 13.3571 33.5328 12.2839C34.0041 12.1324 34.0623 11.9273 33.9406 11.4928C33.496 9.90611 33.0763 8.31225 32.6653 6.71646C32.5597 6.30627 32.4293 6.14866 31.9531 6.29836C28.0627 7.52153 24.5419 9.41932 21.3989 12.0139C20.8161 12.495 20.2229 12.9729 19.7382 13.5749C19.7847 13.644 19.8119 13.7026 19.8547 13.7456C21.173 15.0734 22.4925 16.4 23.8134 17.7251C23.9016 17.8136 23.9938 17.9139 24.1975 17.8131ZM16.681 33.3782C16.76 32.3504 16.9055 31.3318 17.15 30.3304C17.2381 29.9697 17.1663 29.7974 16.7713 29.6977C15.143 29.2868 13.5236 28.8408 11.9018 28.4041C11.2691 28.2337 11.2692 28.2291 11.135 28.8806C10.5745 31.6012 10.2663 34.3402 10.4427 37.1256C10.557 38.9317 10.8104 40.7136 11.1853 42.4819C11.2698 42.8802 11.4308 43.0003 11.8442 42.8845C13.4616 42.4314 15.0838 41.9941 16.7124 41.5833C17.1686 41.4682 17.2717 41.2889 17.1636 40.8279C16.595 38.4035 16.4604 35.9453 16.681 33.3782ZM44.208 59.7516C41.3226 60.0986 38.4552 60.017 35.6172 59.3603C35.2687 59.2796 35.142 59.3728 35.0565 59.7004C34.6128 61.4013 34.1571 63.099 33.6912 64.794C33.6061 65.1036 33.6484 65.283 33.9926 65.3287C34.1175 65.3452 34.2387 65.3883 34.3626 65.4144C37.5756 66.0917 40.8136 66.3371 44.0875 65.9852C45.3481 65.8497 46.5979 65.6495 47.8354 65.3756C48.0958 65.3179 48.3607 65.2811 48.2426 64.8575C47.7619 63.1335 47.3076 61.4021 46.857 59.6699C46.7786 59.3689 46.6387 59.3077 46.3471 59.3689C45.6658 59.5119 44.9776 59.6221 44.208 59.7516ZM20.1928 22.7837C20.9896 21.4621 21.913 20.2343 22.9642 19.1058C23.2321 18.8182 23.2649 18.6326 22.9559 18.3323C21.7395 17.15 20.5542 15.9357 19.3513 14.7393C19.223 14.6117 19.124 14.4319 18.7986 14.378C18.7105 14.4922 18.5959 14.6658 18.4568 14.817C16.3811 17.074 14.6838 19.5873 13.3723 22.3573C12.7003 23.7768 12.1339 25.2393 11.6883 26.7475C11.6028 27.037 11.6165 27.2108 11.9609 27.3C13.6637 27.7412 15.3643 28.1912 17.0591 28.6618C17.4204 28.7621 17.557 28.6753 17.6631 28.3228C18.2465 26.3851 19.0973 24.5657 20.1928 22.7837ZM24.0907 61.0607C26.6849 62.7802 29.477 64.0635 32.4604 64.9157C32.519 64.8347 32.5602 64.8009 32.5715 64.759C33.0627 62.9377 33.5469 61.1145 34.0446 59.2951C34.123 59.0083 33.9825 58.9411 33.7582 58.8693C32.7911 58.5596 31.8373 58.2146 30.9146 57.7858C28.566 56.6944 26.4198 55.2987 24.5272 53.5271C24.2209 53.2404 24.0281 53.2277 23.7206 53.5445C22.5271 54.774 21.3127 55.9838 20.0839 57.1783C19.7695 57.4839 19.8123 57.6631 20.111 57.9349C21.3457 59.058 22.6426 60.0996 24.0907 61.0607ZM62.2707 23.5634C63.1352 25.0827 63.854 26.6654 64.3516 28.3442C64.4216 28.5804 64.4662 28.7887 64.8249 28.6894C66.5653 28.2073 68.3117 27.7462 70.0585 27.2874C70.3534 27.21 70.4332 27.0865 70.3388 26.7808C70.016 25.7353 69.6568 24.7042 69.2374 23.6934C67.8498 20.3499 65.9115 17.361 63.4519 14.7082C63.034 14.2574 63.0259 14.262 62.6062 14.6814C61.44 15.8466 60.2746 17.0127 59.11 18.1795C58.6296 18.6609 58.6323 18.6609 59.091 19.1622C60.3051 20.4888 61.3563 21.934 62.2707 23.5634ZM65.1649 42.6712C64.8672 42.6605 64.4985 42.2658 64.3142 42.8486C63.2064 46.3536 61.3935 49.4477 58.8779 52.1281C58.6485 52.3726 58.6347 52.5586 58.8869 52.8063C60.0866 53.9847 61.2701 55.1795 62.4641 56.3637C62.9757 56.8711 62.9884 56.8728 63.4749 56.3455C66.2308 53.3588 68.325 49.9645 69.7182 46.1453C69.9603 45.4818 70.2413 44.8247 70.3508 44.0665C68.6318 43.6049 66.9349 43.1492 65.1649 42.6712ZM51.5466 13.5149C53.8935 14.6319 55.9848 16.1269 57.905 17.9099C59.2568 16.5579 60.5575 15.2599 61.8544 13.9581C62.288 13.5229 62.2859 13.5158 61.8195 13.083C58.3901 9.9006 54.419 7.66005 49.958 6.2748C49.7998 6.22567 49.6344 6.13662 49.4348 6.22098C49.3956 6.32889 49.344 6.44421 49.3115 6.56467C48.8649 8.21645 48.437 9.87352 47.966 11.5183C47.8357 11.9737 47.9794 12.139 48.391 12.2601C49.4573 12.5738 50.4862 12.9895 51.5466 13.5149ZM61.5984 56.9828C60.4688 55.8484 59.3299 54.7229 58.216 53.5732C57.9268 53.2747 57.7323 53.2791 57.4369 53.5536C54.7943 56.0093 51.7446 57.7709 48.3008 58.8425C47.9182 58.9616 47.808 59.1078 47.9233 59.5155C48.3756 61.1152 48.7938 62.7246 49.2184 64.3321C49.3884 64.9753 49.3855 64.9786 50.0112 64.7857C53.734 63.6378 57.1296 61.8671 60.166 59.4236C60.8648 58.8612 61.5779 58.3073 62.1682 57.6273C62.027 57.3623 61.819 57.2113 61.5984 56.9828ZM67.3102 29.1411C66.6525 29.3175 65.9998 29.5165 65.3355 29.6624C64.8961 29.759 64.7913 29.9398 64.8864 30.3909C65.6284 33.9107 65.6259 37.4342 64.8213 40.944C64.7187 41.3914 64.8913 41.4914 65.2473 41.584C66.8113 41.9908 68.3719 42.4107 69.9324 42.8312C70.6798 43.0326 70.7158 43.0166 70.8719 42.2516C71.4306 39.5135 71.7503 36.7596 71.5658 33.9548C71.4491 32.1797 71.2067 30.4285 70.8507 28.6884C70.7774 28.33 70.6525 28.2209 70.2736 28.3338C69.3175 28.6187 68.3478 28.8581 67.3102 29.1411Z" fill="url(#paint1_linear_1853_2687)"/>
</g>
<g filter="url(#filter3_d_1853_2687)">
<path d="M41.0678 9.87463C41.0181 10.1804 40.9048 10.399 40.58 10.3544C40.2556 10.3099 40.2279 10.0355 40.2151 9.79889C40.1644 8.86292 40.2295 7.91786 39.9603 7.00024C39.9076 6.82066 39.8582 6.63242 39.7604 6.474C39.5288 6.09896 39.2411 6.09191 38.9861 6.45244C38.8215 6.68527 38.6434 6.89275 38.3343 6.71333C38.0529 6.54995 38.0939 6.27691 38.1998 6.02421C38.3888 5.57317 38.7944 5.39959 39.2608 5.33225C39.7167 5.26643 40.0607 5.47735 40.3452 5.78706C40.4385 5.88858 40.5066 6.01068 40.5857 6.12251C40.829 6.10322 40.835 5.88561 40.9543 5.77314C41.325 5.42366 41.7658 5.25112 42.283 5.35734C42.7497 5.45318 43.028 5.75955 43.1352 6.19426C43.1925 6.42646 43.1636 6.64844 42.8893 6.74915C42.6669 6.83082 42.4985 6.73543 42.3947 6.54814C42.2815 6.34409 42.1667 6.13306 41.875 6.19189C41.6098 6.24537 41.5228 6.47813 41.4556 6.68777C41.1272 7.71205 41.0891 8.76996 41.0678 9.87463Z" fill="url(#paint2_linear_1853_2687)"/>
</g>
<g filter="url(#filter4_d_1853_2687)">
<path d="M16.0466 49.8405C15.8577 50.0789 16.0766 50.2661 16.0756 50.4804C16.0744 50.7178 16.0767 50.957 15.8236 51.0118C15.6025 51.0596 15.4898 50.8748 15.4202 50.6655C15.4053 50.6206 15.394 50.5743 15.3794 50.5293C14.9005 49.0469 14.9173 48.978 16.008 47.9883C16.1855 47.8272 16.3872 47.698 16.5833 47.9142C16.7798 48.1309 16.6677 48.3549 16.5154 48.5477C16.4132 48.677 16.3031 48.7987 16.2001 48.9196C16.2761 49.1473 16.453 49.1464 16.5961 49.1918C16.9692 49.3103 17.3525 49.3938 17.7193 49.5316C18.0687 49.6628 18.323 49.6863 18.4165 49.184C18.4524 48.9914 18.613 48.8559 18.8147 48.9073C19.0409 48.965 19.044 49.1859 19.0098 49.3715C18.929 49.8109 19.1274 49.9816 19.4758 50.0563C19.6293 50.0893 19.7829 50.1474 19.923 50.2242C20.0561 50.2972 20.162 50.4234 20.1027 50.6106C20.0435 50.7976 19.9132 50.8868 19.7315 50.8609C19.6606 50.8507 19.5899 50.8305 19.522 50.8053C19.0939 50.646 18.6779 50.4928 18.5419 51.2177C18.5157 51.3571 18.3634 51.435 18.2219 51.385C18.0483 51.3237 17.9463 51.1586 18.0085 50.9751C18.2185 50.3559 17.8352 50.2852 17.4552 50.197C16.9918 50.0895 16.5526 49.8702 16.0466 49.8405Z" fill="url(#paint3_linear_1853_2687)"/>
</g>
<g filter="url(#filter5_d_1853_2687)">
<path d="M27.3526 9.68668C27.3598 9.95788 27.3475 10.1875 27.3838 10.4091C27.4281 10.6792 27.4669 10.9378 27.886 10.8822C28.2144 10.8386 28.4025 11.1712 28.2009 11.4364C27.9459 11.7719 28.1439 11.9249 28.3506 12.1146C28.5779 12.3234 28.8312 12.4892 29.1155 12.6096C29.3773 12.7205 29.5791 12.8966 29.4276 13.2044C29.282 13.5002 29.0234 13.3908 28.7958 13.3018C28.1921 13.0657 27.7018 12.6564 27.2047 12.2181C27.2609 12.7569 27.4141 13.2656 27.3562 13.793C27.3369 13.9687 27.3236 14.1465 27.2859 14.3184C27.2369 14.5422 27.1204 14.7275 26.8579 14.6694C26.6147 14.6155 26.5168 14.4017 26.5629 14.1831C26.6423 13.8064 26.6061 13.4429 26.5318 13.0774C26.4817 12.8312 26.432 12.6274 26.0689 12.6844C25.7381 12.7362 25.5504 12.4082 25.7584 12.1477C25.9826 11.8669 25.8529 11.7234 25.6658 11.5421C25.4072 11.2916 25.105 11.1163 24.7798 10.9712C24.5628 10.8744 24.3663 10.7276 24.4667 10.4538C24.576 10.1553 24.8362 10.1712 25.0755 10.2605C25.715 10.4994 26.2558 10.8878 26.7187 11.5008C26.7961 11.17 26.6722 10.9527 26.6275 10.7298C26.5404 10.2958 26.5338 9.86767 26.6131 9.4296C26.6641 9.14827 26.7366 8.88665 27.0643 8.92368C27.3807 8.95942 27.3685 9.24679 27.3601 9.496C27.3584 9.54452 27.3564 9.59302 27.3526 9.68668Z" fill="url(#paint4_linear_1853_2687)"/>
</g>
<g filter="url(#filter6_d_1853_2687)">
<path d="M11.1264 37.0696C11.2782 36.7412 11.0714 36.5693 10.9745 36.3711C10.5313 35.4646 10.7842 34.7166 11.6336 34.4508C12.3156 34.2374 13.0181 34.3048 13.7105 34.2415C14.05 34.2104 14.2118 34.1134 14.2859 33.6666C14.4092 32.924 14.9766 32.533 15.5088 32.7315C15.9985 32.9141 16.2846 33.7246 16.04 34.3799C15.9006 34.7532 15.8571 35.0003 16.1848 35.2494C16.3675 35.3884 16.4796 35.6478 16.5142 35.9261C16.5437 36.1628 16.4484 36.3233 16.2801 36.4242C16.1178 36.5216 16.0028 36.4423 15.877 36.2971C15.3083 35.6411 14.7011 35.0969 13.844 35.2028C13.2048 35.2817 12.556 35.1903 11.9185 35.3377C11.7618 35.374 11.6065 35.4208 11.5759 35.6427C11.5464 35.8566 11.6721 35.9802 11.8007 36.0893C12.1508 36.3863 12.5461 36.4798 12.9629 36.4546C13.4033 36.428 13.843 36.3812 14.2835 36.355C14.5195 36.341 14.7465 36.4016 14.7729 36.7492C14.7992 37.0961 14.595 37.2092 14.3524 37.2375C13.6435 37.3202 12.9345 37.4012 12.225 37.4771C11.9362 37.508 11.6959 37.5863 11.6244 38.0029C11.5827 38.2457 11.492 38.5164 11.219 38.4203C10.9515 38.3261 10.8469 38.0578 10.9046 37.7375C10.9438 37.5194 11.0396 37.3164 11.1264 37.0696Z" fill="url(#paint5_linear_1853_2687)"/>
</g>
<g filter="url(#filter7_d_1853_2687)">
<path d="M42.1695 63.4374C42.2861 63.0139 42.2155 62.6765 41.952 62.3393C41.5902 61.8763 41.7662 61.5623 42.3896 61.4996C42.6839 61.47 42.9839 61.4826 43.2813 61.4837C43.5893 61.4848 43.8598 61.5868 43.8787 61.8868C43.8956 62.1552 43.6733 62.2913 43.378 62.3202C43.3048 62.3273 43.2349 62.3613 43.1715 62.3806C43.188 64.2864 42.4821 65.1086 40.8755 65.0794C39.5248 65.0548 38.6998 64.0372 38.8076 62.5276C38.7871 62.4981 38.7732 62.4515 38.7443 62.4422C38.4511 62.3472 38.0611 62.3087 38.127 61.9189C38.1932 61.5272 38.5809 61.5263 38.9225 61.5162C39.1203 61.5104 39.3213 61.506 39.5166 61.5293C40.1831 61.6089 40.3153 61.8537 39.9989 62.3959C39.5726 63.1261 39.7537 63.7532 40.4842 64.0768C41.1293 64.3624 41.663 64.17 42.1695 63.4374Z" fill="url(#paint6_linear_1853_2687)"/>
</g>
<g filter="url(#filter8_d_1853_2687)">
<path d="M43.3707 60.7601C43.6994 60.8085 43.9255 60.9068 43.8717 61.1502C43.8171 61.3973 43.5651 61.473 43.2522 61.473C41.7465 61.4733 40.2408 61.4776 38.7352 61.4801C38.4334 61.4806 38.1377 61.4248 38.1205 61.1658C38.1008 60.8709 38.4236 60.8103 38.7399 60.806C40.2675 60.7852 41.7953 60.7707 43.3707 60.7601Z" fill="url(#paint7_linear_1853_2687)"/>
</g>
<g filter="url(#filter9_d_1853_2687)">
<path d="M17.266 21.9834C17.2818 21.5706 17.3994 21.2973 17.7808 21.2553C17.9515 21.2365 18.0317 21.1168 18.027 20.9262C18.0252 20.8535 18.0274 20.7806 18.0279 20.7078C18.033 19.9304 18.3817 19.6123 19.0806 19.7523C19.2271 19.7816 19.3668 19.8398 19.3945 20.0313C19.4247 20.2405 19.3165 20.4027 19.1528 20.4178C18.7072 20.4589 18.6492 20.7261 18.6777 21.1588C18.7043 21.5637 18.6045 21.9504 18.1221 21.9751C17.9768 21.9825 17.9234 22.0939 17.9232 22.2448C17.9229 22.4341 17.9209 22.6233 17.9205 22.8126C17.9198 23.1119 17.8074 23.3312 17.5297 23.3755C17.2366 23.4223 17.1292 23.5951 17.1463 23.9085C17.1558 24.0821 17.1405 24.2576 17.1329 24.432C17.125 24.6149 17.0447 24.7399 16.8756 24.7584C16.7253 24.7747 16.6142 24.682 16.5839 24.5248C16.4895 24.0362 16.5139 23.5417 16.5621 23.0498C16.574 22.9281 16.6665 22.8233 16.7702 22.8113C17.2211 22.7593 17.3059 22.4438 17.266 21.9834Z" fill="url(#paint8_linear_1853_2687)"/>
</g>
<g filter="url(#filter10_d_1853_2687)">
<path d="M15.75 23.3602C15.7377 23.5255 15.7386 23.6598 15.7059 23.7829C15.6612 23.9508 15.5492 24.056 15.3839 24.0382C15.2366 24.0223 15.1406 23.9082 15.1266 23.7526C15.0877 23.3195 15.0565 22.8839 15.1026 22.4494C15.1287 22.2032 15.2685 22.0469 15.4899 22.0318C15.8024 22.0105 15.8722 21.8195 15.8636 21.5091C15.8434 20.7869 15.85 20.7823 16.4522 20.5196C16.5836 20.4623 16.6418 20.3823 16.629 20.2289C16.6206 20.1285 16.6123 20.027 16.6166 19.9266C16.6464 19.2147 17.034 18.8878 17.6752 19.0346C17.8235 19.0685 17.9511 19.1379 17.9591 19.3379C17.9675 19.5456 17.8586 19.7057 17.6972 19.7141C17.212 19.7395 17.222 20.0917 17.2494 20.4717C17.2798 20.8907 17.1629 21.193 16.7441 21.24C16.5452 21.2623 16.4777 21.3813 16.4814 21.5891C16.4851 21.7916 16.4756 21.9944 16.4694 22.197C16.4618 22.4491 16.346 22.628 16.1235 22.6491C15.7063 22.6886 15.6825 22.9683 15.75 23.3602Z" fill="url(#paint9_linear_1853_2687)"/>
</g>
<g filter="url(#filter11_d_1853_2687)">
<path d="M26.0416 59.9983C26.3385 59.4515 26.6181 58.9281 26.9073 58.4131C27.0068 58.236 27.1133 58.0341 27.3286 58.1005C27.5302 58.1627 27.4586 58.4114 27.5153 58.5829C27.6797 58.5733 27.8671 58.4061 27.9921 58.6603C28.1193 58.9188 27.9623 59.104 27.8606 59.292C27.5717 59.8261 27.2981 60.37 27.0887 60.9621C27.0034 61.2032 26.9528 61.4216 27.1189 61.6508C27.2259 61.7986 27.2225 61.9788 27.0949 62.1196C26.9782 62.2485 26.8514 62.2079 26.7419 62.1023C26.3672 61.7407 25.9045 61.59 25.5063 61.2774C25.1823 61.0229 25.0556 60.581 25.2556 59.9661C25.4915 59.2405 25.8687 58.618 26.2429 58.0004C26.4625 57.638 26.6179 57.3154 26.3708 56.8668C26.2427 56.6343 26.3657 56.4893 26.572 56.454C26.9489 56.3895 27.1008 56.5467 27.1503 57.0057C27.1856 57.3328 27.1238 57.6135 26.977 57.8757C26.7017 58.3673 26.4245 58.8573 26.1518 59.3513C25.9712 59.6784 25.8413 60.0356 25.7493 60.4987C25.9167 60.3523 25.9453 60.1613 26.0416 59.9983Z" fill="url(#paint10_linear_1853_2687)"/>
</g>
<g filter="url(#filter12_d_1853_2687)">
<path d="M63.5782 24.4941C63.2479 23.4703 62.8008 22.5559 62.0944 21.7941C61.9099 21.5951 61.7763 21.3545 61.9871 21.1244C62.2047 20.8867 62.4493 21.073 62.5802 21.2522C62.8593 21.6347 63.1048 21.5378 63.4311 21.3228C63.9625 20.9727 64.5214 20.6665 65.074 20.3517C65.3357 20.2025 65.4806 20.0308 65.3456 19.6998C65.2954 19.5766 65.2963 19.4154 65.3188 19.2795C65.3677 18.9852 65.6153 18.9107 65.8271 19.1171C65.8816 19.1702 65.9353 19.2401 65.9555 19.3124C66.2532 20.3734 66.8345 21.263 67.508 22.101C67.6415 22.2671 67.7148 22.4902 67.5228 22.6579C67.3324 22.8242 67.1039 22.7234 66.993 22.5547C66.7003 22.1097 66.3995 22.2511 66.0589 22.4652C65.5725 22.7712 65.0823 23.0726 64.5799 23.3491C64.2317 23.5408 63.9983 23.7421 64.2093 24.1926C64.2931 24.3716 64.284 24.5839 64.0937 24.7024C63.8767 24.8375 63.7144 24.7222 63.5782 24.4941ZM65.6738 21.854C65.9554 21.7002 66.1704 21.5294 65.9602 21.1493C65.7455 20.7611 65.5024 20.8985 65.2335 21.065C64.7599 21.3582 64.2775 21.6362 63.8036 21.929C63.5638 22.0772 63.3127 22.2165 63.5219 22.5938C63.7378 22.9832 63.999 22.8444 64.2597 22.6956C64.7161 22.435 65.1641 22.159 65.6738 21.854Z" fill="url(#paint11_linear_1853_2687)"/>
</g>
<g filter="url(#filter13_d_1853_2687)">
<path d="M63.1379 49.0902C63.262 49.1316 63.3556 49.1633 63.5033 49.2135C63.4189 48.9769 63.2975 48.8054 63.3063 48.5971C63.3238 48.1843 63.688 47.8243 64.1522 47.8019C64.7293 47.7741 65.2139 48.0805 65.1991 48.5306C65.1877 48.8792 65.3409 49.0605 65.7173 49.1759C66.047 49.277 66.325 49.4542 66.5573 49.6782C67.0156 50.1199 67.0413 50.6035 66.622 51.0079C66.1625 51.451 65.6139 51.5164 65.0004 51.2158C64.4425 50.9423 64.037 50.5314 63.5779 50.1678C63.3316 49.9727 63.1315 49.7221 62.7905 49.6467C62.6785 49.6789 62.6729 49.7438 62.6591 49.8054C62.618 49.9881 62.5506 50.1712 62.2718 50.1437C61.9789 50.1149 61.8885 49.9242 61.8801 49.7052C61.8606 49.1933 62.4027 48.9184 63.1379 49.0902ZM63.8205 49.4194C64.0902 49.863 64.5748 50.1445 64.998 50.4681C65.2355 50.6496 65.5147 50.837 65.8877 50.6973C66.0522 50.6357 66.1568 50.5141 66.1382 50.3686C66.0961 50.0407 65.7955 49.8827 65.4737 49.7615C64.9631 49.5691 64.4199 49.4667 63.8205 49.4194ZM64.1459 48.7276C64.3025 48.8002 64.4029 48.7575 64.4259 48.6166C64.4425 48.5151 64.3644 48.4494 64.2421 48.4639C64.0774 48.4834 64.0154 48.5632 64.1459 48.7276Z" fill="url(#paint12_linear_1853_2687)"/>
</g>
<g filter="url(#filter14_d_1853_2687)">
<path d="M57.492 10.9162C57.6548 11.2695 57.5053 11.4303 57.2341 11.4528C56.9965 11.4724 56.8087 11.5912 56.6042 11.696C56.3554 11.8235 56.2614 12.0061 56.2575 12.3136C56.2476 13.1018 55.7346 13.7741 55.0676 13.9248C54.3501 14.087 53.6792 13.6821 53.3608 12.8946C53.0858 12.2143 53.29 11.4023 53.8563 10.9251C54.3224 10.5324 54.442 10.1151 54.2414 9.50078C54.1735 9.29262 54.1006 9.08889 54.3194 8.96447C54.5404 8.8388 54.6907 9.00188 54.8223 9.18611C55.0038 9.44049 54.9952 9.73746 54.9707 10.03C54.9431 10.3597 54.9942 10.6172 55.3267 10.7077C55.3764 10.7212 55.4286 10.7533 55.4648 10.7933C55.8648 11.2344 56.2569 11.2027 56.6992 10.84C56.9304 10.6505 57.2262 10.6474 57.492 10.9162ZM53.9231 12.3998C54.0767 12.9876 54.3433 13.2207 54.8258 13.189C55.2305 13.1624 55.5318 12.8585 55.5815 12.4268C55.6497 11.835 55.3699 11.4113 54.8749 11.3563C54.2868 11.291 53.9668 11.6161 53.9231 12.3998Z" fill="url(#paint13_linear_1853_2687)"/>
</g>
<g filter="url(#filter15_d_1853_2687)">
<path d="M52.5206 57.8638C52.5696 57.6907 52.6758 57.6171 52.8088 57.6044C53.0196 57.5843 53.181 57.507 53.2982 57.315C53.3909 57.1631 53.5436 57.1181 53.7068 57.2016C53.8789 57.2896 53.9174 57.4764 53.8404 57.6114C53.5736 58.0792 53.8397 58.4298 54.0323 58.8138C54.2709 59.2895 54.4802 59.7807 54.7974 60.2111C54.9236 60.3823 55.0363 60.5675 55.2993 60.6176C55.0156 60.2023 54.8378 59.7341 54.5853 59.3035C54.4038 58.9942 54.234 58.6769 54.0763 58.3543C53.9808 58.159 53.9767 57.9446 54.1793 57.813C54.4146 57.6601 54.555 57.8475 54.6573 58.0206C54.9635 58.5389 55.2455 59.0722 55.5546 59.5886C55.6906 59.8159 55.847 60.039 56.1037 60.1587C55.6121 59.4886 55.2563 58.74 54.8627 58.0144C54.7418 57.7914 54.6229 57.5334 54.9084 57.3713C55.1777 57.2185 55.3304 57.4683 55.4405 57.662C55.7532 58.2121 56.0668 58.7608 56.4267 59.2804C56.6038 59.536 56.7821 59.7617 57.1543 59.6334C57.3339 59.5715 57.4871 59.6845 57.5454 59.8777C57.6027 60.0674 57.4753 60.1806 57.3459 60.2693C56.8122 60.6352 56.2734 60.9932 55.736 61.3535C55.3863 61.588 54.9405 61.4989 54.5686 61.0691C54.3616 60.8298 54.2062 60.683 53.8641 60.8566C53.5758 61.003 53.3204 60.8147 53.1451 60.5556C52.8633 60.139 52.8536 59.6622 52.8565 59.1807C52.8589 58.7787 52.9907 58.3347 52.5397 58.0606C52.51 58.0425 52.5224 57.952 52.5206 57.8638Z" fill="url(#paint14_linear_1853_2687)"/>
</g>
<g filter="url(#filter16_d_1853_2687)">
<path d="M69.4664 32.8922C69.7236 33.0466 69.8589 33.2983 69.9697 33.5618C70.6468 35.1724 70.7339 36.8039 70.0334 38.444C69.8659 38.8359 69.6386 39.1261 69.2435 38.9544C69.112 38.8972 69.0054 39.0034 68.8901 39.0558C68.3602 39.2967 67.9224 39.1201 67.5776 38.5307C66.773 37.1551 66.6929 34.8008 67.4118 33.3345C67.5759 32.9998 67.7957 32.7437 68.1433 32.8756C68.2932 32.9324 68.4143 32.8292 68.5443 32.7735C68.8519 32.6419 69.1516 32.6229 69.4664 32.8922ZM67.7787 35.5875C67.784 35.8424 67.7238 36.1102 67.8962 36.3999C68.5421 35.9883 69.0856 36.2865 69.5599 37.0906C69.6453 36.4465 69.8035 35.9693 69.542 35.4001C68.8919 35.8901 68.3761 35.518 67.94 34.8832C67.7698 35.0812 67.8012 35.2945 67.7787 35.5875ZM68.3629 37.9403C68.5895 38.07 68.6729 37.9149 68.679 37.6531C68.6826 37.4991 68.5981 37.3632 68.4842 37.3923C68.2772 37.4453 68.2343 37.6386 68.3629 37.9403ZM68.8795 33.8607C68.6797 34.022 68.6977 34.2154 68.8459 34.404C68.927 34.5074 69.0329 34.4728 69.085 34.3567C69.1881 34.127 69.1717 33.9307 68.8795 33.8607Z" fill="url(#paint15_linear_1853_2687)"/>
</g>
<g filter="url(#filter17_d_1853_2687)">
<path d="M41.9896 34.6106H49.4896C49.9896 34.6106 50.2396 34.8606 50.2396 35.3606V36.9606C50.2396 37.4272 49.9896 37.6606 49.4896 37.6606H41.9896V45.2606C41.9896 45.7939 41.7396 46.0606 41.2396 46.0606H39.5396C39.0396 46.0606 38.7896 45.7939 38.7896 45.2606V37.6606H31.2396C30.7396 37.6606 30.4896 37.4272 30.4896 36.9606V35.3606C30.4896 34.8606 30.7396 34.6106 31.2396 34.6106H38.7896V27.0606C38.7896 26.5272 39.0396 26.2606 39.5396 26.2606H41.2396C41.7396 26.2606 41.9896 26.5272 41.9896 27.0606V34.6106Z" fill="#55472A"/>
</g>
</g>
<defs>
<filter id="filter0_d_1853_2687" x="0" y="0" width="82" height="82" filterUnits="userSpaceOnUse" color-interpolation-filters="sRGB">
<feFlood flood-opacity="0" result="BackgroundImageFix"/>
<feColorMatrix in="SourceAlpha" type="matrix" values="0 0 0 0 0 0 0 0 0 0 0 0 0 0 0 0 0 0 127 0" result="hardAlpha"/>
<feMorphology radius="1" operator="dilate" in="SourceAlpha" result="effect1_dropShadow_1853_2687"/>
<feOffset dy="4"/>
<feGaussianBlur stdDeviation="2"/>
<feComposite in2="hardAlpha" operator="out"/>
<feColorMatrix type="matrix" values="0 0 0 0 0 0 0 0 0 0 0 0 0 0 0 0 0 0 0.75 0"/>
<feBlend mode="normal" in2="BackgroundImageFix" result="effect1_dropShadow_1853_2687"/>
<feBlend mode="normal" in="SourceGraphic" in2="effect1_dropShadow_1853_2687" result="shape"/>
</filter>
<filter id="filter1_d_1853_2687" x="3.31982" y="1.88" width="75.3601" height="75.36" filterUnits="userSpaceOnUse" color-interpolation-filters="sRGB">
<feFlood flood-opacity="0" result="BackgroundImageFix"/>
<feColorMatrix in="SourceAlpha" type="matrix" values="0 0 0 0 0 0 0 0 0 0 0 0 0 0 0 0 0 0 127 0" result="hardAlpha"/>
<feMorphology radius="2" operator="dilate" in="SourceAlpha" result="effect1_dropShadow_1853_2687"/>
<feOffset dy="4"/>
<feGaussianBlur stdDeviation="2"/>
<feComposite in2="hardAlpha" operator="out"/>
<feColorMatrix type="matrix" values="0 0 0 0 0 0 0 0 0 0 0 0 0 0 0 0 0 0 0.25 0"/>
<feBlend mode="normal" in2="BackgroundImageFix" result="effect1_dropShadow_1853_2687"/>
<feBlend mode="normal" in="SourceGraphic" in2="effect1_dropShadow_1853_2687" result="shape"/>
</filter>
<filter id="filter2_d_1853_2687" x="8.31958" y="3.88013" width="65.3601" height="65.36" filterUnits="userSpaceOnUse" color-interpolation-filters="sRGB">
<feFlood flood-opacity="0" result="BackgroundImageFix"/>
<feColorMatrix in="SourceAlpha" type="matrix" values="0 0 0 0 0 0 0 0 0 0 0 0 0 0 0 0 0 0 127 0" result="hardAlpha"/>
<feOffset dy="1"/>
<feGaussianBlur stdDeviation="0.5"/>
<feComposite in2="hardAlpha" operator="out"/>
<feColorMatrix type="matrix" values="0 0 0 0 0 0 0 0 0 0 0 0 0 0 0 0 0 0 0.5 0"/>
<feBlend mode="normal" in2="BackgroundImageFix" result="effect1_dropShadow_1853_2687"/>
<feBlend mode="normal" in="SourceGraphic" in2="effect1_dropShadow_1853_2687" result="shape"/>
</filter>
<filter id="filter3_d_1853_2687" x="37.1196" y="5.32019" width="7.04004" height="7.04004" filterUnits="userSpaceOnUse" color-interpolation-filters="sRGB">
<feFlood flood-opacity="0" result="BackgroundImageFix"/>
<feColorMatrix in="SourceAlpha" type="matrix" values="0 0 0 0 0 0 0 0 0 0 0 0 0 0 0 0 0 0 127 0" result="hardAlpha"/>
<feOffset dy="1"/>
<feGaussianBlur stdDeviation="0.5"/>
<feComposite in2="hardAlpha" operator="out"/>
<feColorMatrix type="matrix" values="0 0 0 0 0 0 0 0 0 0 0 0 0 0 0 0 0 0 0.5 0"/>
<feBlend mode="normal" in2="BackgroundImageFix" result="effect1_dropShadow_1853_2687"/>
<feBlend mode="normal" in="SourceGraphic" in2="effect1_dropShadow_1853_2687" result="shape"/>
</filter>
<filter id="filter4_d_1853_2687" x="14.0796" y="47.8002" width="7.04004" height="5.59998" filterUnits="userSpaceOnUse" color-interpolation-filters="sRGB">
<feFlood flood-opacity="0" result="BackgroundImageFix"/>
<feColorMatrix in="SourceAlpha" type="matrix" values="0 0 0 0 0 0 0 0 0 0 0 0 0 0 0 0 0 0 127 0" result="hardAlpha"/>
<feOffset dy="1"/>
<feGaussianBlur stdDeviation="0.5"/>
<feComposite in2="hardAlpha" operator="out"/>
<feColorMatrix type="matrix" values="0 0 0 0 0 0 0 0 0 0 0 0 0 0 0 0 0 0 0.5 0"/>
<feBlend mode="normal" in2="BackgroundImageFix" result="effect1_dropShadow_1853_2687"/>
<feBlend mode="normal" in="SourceGraphic" in2="effect1_dropShadow_1853_2687" result="shape"/>
</filter>
<filter id="filter5_d_1853_2687" x="23.4397" y="8.92017" width="7.04004" height="7.76001" filterUnits="userSpaceOnUse" color-interpolation-filters="sRGB">
<feFlood flood-opacity="0" result="BackgroundImageFix"/>
<feColorMatrix in="SourceAlpha" type="matrix" values="0 0 0 0 0 0 0 0 0 0 0 0 0 0 0 0 0 0 127 0" result="hardAlpha"/>
<feOffset dy="1"/>
<feGaussianBlur stdDeviation="0.5"/>
<feComposite in2="hardAlpha" operator="out"/>
<feColorMatrix type="matrix" values="0 0 0 0 0 0 0 0 0 0 0 0 0 0 0 0 0 0 0.5 0"/>
<feBlend mode="normal" in2="BackgroundImageFix" result="effect1_dropShadow_1853_2687"/>
<feBlend mode="normal" in="SourceGraphic" in2="effect1_dropShadow_1853_2687" result="shape"/>
</filter>
<filter id="filter6_d_1853_2687" x="9.75952" y="32.6802" width="7.76001" height="7.76001" filterUnits="userSpaceOnUse" color-interpolation-filters="sRGB">
<feFlood flood-opacity="0" result="BackgroundImageFix"/>
<feColorMatrix in="SourceAlpha" type="matrix" values="0 0 0 0 0 0 0 0 0 0 0 0 0 0 0 0 0 0 127 0" result="hardAlpha"/>
<feOffset dy="1"/>
<feGaussianBlur stdDeviation="0.5"/>
<feComposite in2="hardAlpha" operator="out"/>
<feColorMatrix type="matrix" values="0 0 0 0 0 0 0 0 0 0 0 0 0 0 0 0 0 0 0.5 0"/>
<feBlend mode="normal" in2="BackgroundImageFix" result="effect1_dropShadow_1853_2687"/>
<feBlend mode="normal" in="SourceGraphic" in2="effect1_dropShadow_1853_2687" result="shape"/>
</filter>
<filter id="filter7_d_1853_2687" x="37.1196" y="61.4801" width="7.76001" height="5.59998" filterUnits="userSpaceOnUse" color-interpolation-filters="sRGB">
<feFlood flood-opacity="0" result="BackgroundImageFix"/>
<feColorMatrix in="SourceAlpha" type="matrix" values="0 0 0 0 0 0 0 0 0 0 0 0 0 0 0 0 0 0 127 0" result="hardAlpha"/>
<feOffset dy="1"/>
<feGaussianBlur stdDeviation="0.5"/>
<feComposite in2="hardAlpha" operator="out"/>
<feColorMatrix type="matrix" values="0 0 0 0 0 0 0 0 0 0 0 0 0 0 0 0 0 0 0.5 0"/>
<feBlend mode="normal" in2="BackgroundImageFix" result="effect1_dropShadow_1853_2687"/>
<feBlend mode="normal" in="SourceGraphic" in2="effect1_dropShadow_1853_2687" result="shape"/>
</filter>
<filter id="filter8_d_1853_2687" x="37.1196" y="60.7601" width="7.76001" height="2.71997" filterUnits="userSpaceOnUse" color-interpolation-filters="sRGB">
<feFlood flood-opacity="0" result="BackgroundImageFix"/>
<feColorMatrix in="SourceAlpha" type="matrix" values="0 0 0 0 0 0 0 0 0 0 0 0 0 0 0 0 0 0 127 0" result="hardAlpha"/>
<feOffset dy="1"/>
<feGaussianBlur stdDeviation="0.5"/>
<feComposite in2="hardAlpha" operator="out"/>
<feColorMatrix type="matrix" values="0 0 0 0 0 0 0 0 0 0 0 0 0 0 0 0 0 0 0.5 0"/>
<feBlend mode="normal" in2="BackgroundImageFix" result="effect1_dropShadow_1853_2687"/>
<feBlend mode="normal" in="SourceGraphic" in2="effect1_dropShadow_1853_2687" result="shape"/>
</filter>
<filter id="filter9_d_1853_2687" x="15.5195" y="19.7202" width="4.87988" height="7.04004" filterUnits="userSpaceOnUse" color-interpolation-filters="sRGB">
<feFlood flood-opacity="0" result="BackgroundImageFix"/>
<feColorMatrix in="SourceAlpha" type="matrix" values="0 0 0 0 0 0 0 0 0 0 0 0 0 0 0 0 0 0 127 0" result="hardAlpha"/>
<feOffset dy="1"/>
<feGaussianBlur stdDeviation="0.5"/>
<feComposite in2="hardAlpha" operator="out"/>
<feColorMatrix type="matrix" values="0 0 0 0 0 0 0 0 0 0 0 0 0 0 0 0 0 0 0.5 0"/>
<feBlend mode="normal" in2="BackgroundImageFix" result="effect1_dropShadow_1853_2687"/>
<feBlend mode="normal" in="SourceGraphic" in2="effect1_dropShadow_1853_2687" result="shape"/>
</filter>
<filter id="filter10_d_1853_2687" x="14.0796" y="19.0001" width="4.87988" height="7.04004" filterUnits="userSpaceOnUse" color-interpolation-filters="sRGB">
<feFlood flood-opacity="0" result="BackgroundImageFix"/>
<feColorMatrix in="SourceAlpha" type="matrix" values="0 0 0 0 0 0 0 0 0 0 0 0 0 0 0 0 0 0 127 0" result="hardAlpha"/>
<feOffset dy="1"/>
<feGaussianBlur stdDeviation="0.5"/>
<feComposite in2="hardAlpha" operator="out"/>
<feColorMatrix type="matrix" values="0 0 0 0 0 0 0 0 0 0 0 0 0 0 0 0 0 0 0.5 0"/>
<feBlend mode="normal" in2="BackgroundImageFix" result="effect1_dropShadow_1853_2687"/>
<feBlend mode="normal" in="SourceGraphic" in2="effect1_dropShadow_1853_2687" result="shape"/>
</filter>
<filter id="filter11_d_1853_2687" x="24.1597" y="56.4402" width="4.87988" height="7.76001" filterUnits="userSpaceOnUse" color-interpolation-filters="sRGB">
<feFlood flood-opacity="0" result="BackgroundImageFix"/>
<feColorMatrix in="SourceAlpha" type="matrix" values="0 0 0 0 0 0 0 0 0 0 0 0 0 0 0 0 0 0 127 0" result="hardAlpha"/>
<feOffset dy="1"/>
<feGaussianBlur stdDeviation="0.5"/>
<feComposite in2="hardAlpha" operator="out"/>
<feColorMatrix type="matrix" values="0 0 0 0 0 0 0 0 0 0 0 0 0 0 0 0 0 0 0.5 0"/>
<feBlend mode="normal" in2="BackgroundImageFix" result="effect1_dropShadow_1853_2687"/>
<feBlend mode="normal" in="SourceGraphic" in2="effect1_dropShadow_1853_2687" result="shape"/>
</filter>
<filter id="filter12_d_1853_2687" x="60.8796" y="19.0001" width="7.76001" height="7.76001" filterUnits="userSpaceOnUse" color-interpolation-filters="sRGB">
<feFlood flood-opacity="0" result="BackgroundImageFix"/>
<feColorMatrix in="SourceAlpha" type="matrix" values="0 0 0 0 0 0 0 0 0 0 0 0 0 0 0 0 0 0 127 0" result="hardAlpha"/>
<feOffset dy="1"/>
<feGaussianBlur stdDeviation="0.5"/>
<feComposite in2="hardAlpha" operator="out"/>
<feColorMatrix type="matrix" values="0 0 0 0 0 0 0 0 0 0 0 0 0 0 0 0 0 0 0.5 0"/>
<feBlend mode="normal" in2="BackgroundImageFix" result="effect1_dropShadow_1853_2687"/>
<feBlend mode="normal" in="SourceGraphic" in2="effect1_dropShadow_1853_2687" result="shape"/>
</filter>
<filter id="filter13_d_1853_2687" x="60.8796" y="47.8002" width="7.04004" height="5.59998" filterUnits="userSpaceOnUse" color-interpolation-filters="sRGB">
<feFlood flood-opacity="0" result="BackgroundImageFix"/>
<feColorMatrix in="SourceAlpha" type="matrix" values="0 0 0 0 0 0 0 0 0 0 0 0 0 0 0 0 0 0 127 0" result="hardAlpha"/>
<feOffset dy="1"/>
<feGaussianBlur stdDeviation="0.5"/>
<feComposite in2="hardAlpha" operator="out"/>
<feColorMatrix type="matrix" values="0 0 0 0 0 0 0 0 0 0 0 0 0 0 0 0 0 0 0.5 0"/>
<feBlend mode="normal" in2="BackgroundImageFix" result="effect1_dropShadow_1853_2687"/>
<feBlend mode="normal" in="SourceGraphic" in2="effect1_dropShadow_1853_2687" result="shape"/>
</filter>
<filter id="filter14_d_1853_2687" x="52.2395" y="8.92017" width="6.32007" height="7.04004" filterUnits="userSpaceOnUse" color-interpolation-filters="sRGB">
<feFlood flood-opacity="0" result="BackgroundImageFix"/>
<feColorMatrix in="SourceAlpha" type="matrix" values="0 0 0 0 0 0 0 0 0 0 0 0 0 0 0 0 0 0 127 0" result="hardAlpha"/>
<feOffset dy="1"/>
<feGaussianBlur stdDeviation="0.5"/>
<feComposite in2="hardAlpha" operator="out"/>
<feColorMatrix type="matrix" values="0 0 0 0 0 0 0 0 0 0 0 0 0 0 0 0 0 0 0.5 0"/>
<feBlend mode="normal" in2="BackgroundImageFix" result="effect1_dropShadow_1853_2687"/>
<feBlend mode="normal" in="SourceGraphic" in2="effect1_dropShadow_1853_2687" result="shape"/>
</filter>
<filter id="filter15_d_1853_2687" x="51.5195" y="57.1602" width="7.04004" height="6.31995" filterUnits="userSpaceOnUse" color-interpolation-filters="sRGB">
<feFlood flood-opacity="0" result="BackgroundImageFix"/>
<feColorMatrix in="SourceAlpha" type="matrix" values="0 0 0 0 0 0 0 0 0 0 0 0 0 0 0 0 0 0 127 0" result="hardAlpha"/>
<feOffset dy="1"/>
<feGaussianBlur stdDeviation="0.5"/>
<feComposite in2="hardAlpha" operator="out"/>
<feColorMatrix type="matrix" values="0 0 0 0 0 0 0 0 0 0 0 0 0 0 0 0 0 0 0.5 0"/>
<feBlend mode="normal" in2="BackgroundImageFix" result="effect1_dropShadow_1853_2687"/>
<feBlend mode="normal" in="SourceGraphic" in2="effect1_dropShadow_1853_2687" result="shape"/>
</filter>
<filter id="filter16_d_1853_2687" x="65.9197" y="32.6802" width="5.6001" height="8.47998" filterUnits="userSpaceOnUse" color-interpolation-filters="sRGB">
<feFlood flood-opacity="0" result="BackgroundImageFix"/>
<feColorMatrix in="SourceAlpha" type="matrix" values="0 0 0 0 0 0 0 0 0 0 0 0 0 0 0 0 0 0 127 0" result="hardAlpha"/>
<feOffset dy="1"/>
<feGaussianBlur stdDeviation="0.5"/>
<feComposite in2="hardAlpha" operator="out"/>
<feColorMatrix type="matrix" values="0 0 0 0 0 0 0 0 0 0 0 0 0 0 0 0 0 0 0.5 0"/>
<feBlend mode="normal" in2="BackgroundImageFix" result="effect1_dropShadow_1853_2687"/>
<feBlend mode="normal" in="SourceGraphic" in2="effect1_dropShadow_1853_2687" result="shape"/>
</filter>
<filter id="filter17_d_1853_2687" x="29.4897" y="26.2606" width="21.75" height="21.7999" filterUnits="userSpaceOnUse" color-interpolation-filters="sRGB">
<feFlood flood-opacity="0" result="BackgroundImageFix"/>
<feColorMatrix in="SourceAlpha" type="matrix" values="0 0 0 0 0 0 0 0 0 0 0 0 0 0 0 0 0 0 127 0" result="hardAlpha"/>
<feOffset dy="1"/>
<feGaussianBlur stdDeviation="0.5"/>
<feComposite in2="hardAlpha" operator="out"/>
<feColorMatrix type="matrix" values="0 0 0 0 0 0 0 0 0 0 0 0 0 0 0 0 0 0 0.75 0"/>
<feBlend mode="normal" in2="BackgroundImageFix" result="effect1_dropShadow_1853_2687"/>
<feBlend mode="normal" in="SourceGraphic" in2="effect1_dropShadow_1853_2687" result="shape"/>
</filter>
<radialGradient id="paint0_angular_1853_2687" cx="0" cy="0" r="1" gradientUnits="userSpaceOnUse" gradientTransform="translate(41 37) scale(36)">
<stop offset="0.025" stop-color="#A47A1E"/>
<stop offset="0.19" stop-color="#D3A84C"/>
<stop offset="0.385" stop-color="#FFEC94"/>
<stop offset="0.58" stop-color="#E6BE69"/>
<stop offset="0.795" stop-color="#FFD87C"/>
<stop offset="0.91" stop-color="#B58F3E"/>
<stop offset="1" stop-color="#956D13"/>
</radialGradient>
<linearGradient id="paint1_linear_1853_2687" x1="9.31958" y1="35.5601" x2="72.6796" y2="35.5601" gradientUnits="userSpaceOnUse">
<stop offset="0.025" stop-color="#A47A1E"/>
<stop offset="0.19" stop-color="#D3A84C"/>
<stop offset="0.385" stop-color="#FFEC94"/>
<stop offset="0.58" stop-color="#E6BE69"/>
<stop offset="0.795" stop-color="#FFD87C"/>
<stop offset="0.91" stop-color="#B58F3E"/>
<stop offset="1" stop-color="#956D13"/>
</linearGradient>
<linearGradient id="paint2_linear_1853_2687" x1="38.1196" y1="7.84019" x2="43.1596" y2="7.84019" gradientUnits="userSpaceOnUse">
<stop offset="0.025" stop-color="#A47A1E"/>
<stop offset="0.19" stop-color="#D3A84C"/>
<stop offset="0.385" stop-color="#FFEC94"/>
<stop offset="0.58" stop-color="#E6BE69"/>
<stop offset="0.795" stop-color="#FFD87C"/>
<stop offset="0.91" stop-color="#B58F3E"/>
<stop offset="1" stop-color="#956D13"/>
</linearGradient>
<linearGradient id="paint3_linear_1853_2687" x1="15.0796" y1="49.6002" x2="20.1196" y2="49.6002" gradientUnits="userSpaceOnUse">
<stop offset="0.025" stop-color="#A47A1E"/>
<stop offset="0.19" stop-color="#D3A84C"/>
<stop offset="0.385" stop-color="#FFEC94"/>
<stop offset="0.58" stop-color="#E6BE69"/>
<stop offset="0.795" stop-color="#FFD87C"/>
<stop offset="0.91" stop-color="#B58F3E"/>
<stop offset="1" stop-color="#956D13"/>
</linearGradient>
<linearGradient id="paint4_linear_1853_2687" x1="24.4397" y1="11.8002" x2="29.4797" y2="11.8002" gradientUnits="userSpaceOnUse">
<stop offset="0.025" stop-color="#A47A1E"/>
<stop offset="0.19" stop-color="#D3A84C"/>
<stop offset="0.385" stop-color="#FFEC94"/>
<stop offset="0.58" stop-color="#E6BE69"/>
<stop offset="0.795" stop-color="#FFD87C"/>
<stop offset="0.91" stop-color="#B58F3E"/>
<stop offset="1" stop-color="#956D13"/>
</linearGradient>
<linearGradient id="paint5_linear_1853_2687" x1="10.7595" y1="35.5602" x2="16.5195" y2="35.5602" gradientUnits="userSpaceOnUse">
<stop offset="0.025" stop-color="#A47A1E"/>
<stop offset="0.19" stop-color="#D3A84C"/>
<stop offset="0.385" stop-color="#FFEC94"/>
<stop offset="0.58" stop-color="#E6BE69"/>
<stop offset="0.795" stop-color="#FFD87C"/>
<stop offset="0.91" stop-color="#B58F3E"/>
<stop offset="1" stop-color="#956D13"/>
</linearGradient>
<linearGradient id="paint6_linear_1853_2687" x1="38.1196" y1="63.2801" x2="43.8796" y2="63.2801" gradientUnits="userSpaceOnUse">
<stop offset="0.025" stop-color="#A47A1E"/>
<stop offset="0.19" stop-color="#D3A84C"/>
<stop offset="0.385" stop-color="#FFEC94"/>
<stop offset="0.58" stop-color="#E6BE69"/>
<stop offset="0.795" stop-color="#FFD87C"/>
<stop offset="0.91" stop-color="#B58F3E"/>
<stop offset="1" stop-color="#956D13"/>
</linearGradient>
<linearGradient id="paint7_linear_1853_2687" x1="38.1196" y1="61.1201" x2="43.8796" y2="61.1201" gradientUnits="userSpaceOnUse">
<stop offset="0.025" stop-color="#A47A1E"/>
<stop offset="0.19" stop-color="#D3A84C"/>
<stop offset="0.385" stop-color="#FFEC94"/>
<stop offset="0.58" stop-color="#E6BE69"/>
<stop offset="0.795" stop-color="#FFD87C"/>
<stop offset="0.91" stop-color="#B58F3E"/>
<stop offset="1" stop-color="#956D13"/>
</linearGradient>
<linearGradient id="paint8_linear_1853_2687" x1="16.5195" y1="22.2402" x2="19.3995" y2="22.2402" gradientUnits="userSpaceOnUse">
<stop offset="0.025" stop-color="#A47A1E"/>
<stop offset="0.19" stop-color="#D3A84C"/>
<stop offset="0.385" stop-color="#FFEC94"/>
<stop offset="0.58" stop-color="#E6BE69"/>
<stop offset="0.795" stop-color="#FFD87C"/>
<stop offset="0.91" stop-color="#B58F3E"/>
<stop offset="1" stop-color="#956D13"/>
</linearGradient>
<linearGradient id="paint9_linear_1853_2687" x1="15.0796" y1="21.5201" x2="17.9596" y2="21.5201" gradientUnits="userSpaceOnUse">
<stop offset="0.025" stop-color="#A47A1E"/>
<stop offset="0.19" stop-color="#D3A84C"/>
<stop offset="0.385" stop-color="#FFEC94"/>
<stop offset="0.58" stop-color="#E6BE69"/>
<stop offset="0.795" stop-color="#FFD87C"/>
<stop offset="0.91" stop-color="#B58F3E"/>
<stop offset="1" stop-color="#956D13"/>
</linearGradient>
<linearGradient id="paint10_linear_1853_2687" x1="25.1597" y1="59.3202" x2="28.0397" y2="59.3202" gradientUnits="userSpaceOnUse">
<stop offset="0.025" stop-color="#A47A1E"/>
<stop offset="0.19" stop-color="#D3A84C"/>
<stop offset="0.385" stop-color="#FFEC94"/>
<stop offset="0.58" stop-color="#E6BE69"/>
<stop offset="0.795" stop-color="#FFD87C"/>
<stop offset="0.91" stop-color="#B58F3E"/>
<stop offset="1" stop-color="#956D13"/>
</linearGradient>
<linearGradient id="paint11_linear_1853_2687" x1="61.8796" y1="21.8801" x2="67.6396" y2="21.8801" gradientUnits="userSpaceOnUse">
<stop offset="0.025" stop-color="#A47A1E"/>
<stop offset="0.19" stop-color="#D3A84C"/>
<stop offset="0.385" stop-color="#FFEC94"/>
<stop offset="0.58" stop-color="#E6BE69"/>
<stop offset="0.795" stop-color="#FFD87C"/>
<stop offset="0.91" stop-color="#B58F3E"/>
<stop offset="1" stop-color="#956D13"/>
</linearGradient>
<linearGradient id="paint12_linear_1853_2687" x1="61.8796" y1="49.6002" x2="66.9196" y2="49.6002" gradientUnits="userSpaceOnUse">
<stop offset="0.025" stop-color="#A47A1E"/>
<stop offset="0.19" stop-color="#D3A84C"/>
<stop offset="0.385" stop-color="#FFEC94"/>
<stop offset="0.58" stop-color="#E6BE69"/>
<stop offset="0.795" stop-color="#FFD87C"/>
<stop offset="0.91" stop-color="#B58F3E"/>
<stop offset="1" stop-color="#956D13"/>
</linearGradient>
<linearGradient id="paint13_linear_1853_2687" x1="53.2395" y1="11.4402" x2="57.5595" y2="11.4402" gradientUnits="userSpaceOnUse">
<stop offset="0.025" stop-color="#A47A1E"/>
<stop offset="0.19" stop-color="#D3A84C"/>
<stop offset="0.385" stop-color="#FFEC94"/>
<stop offset="0.58" stop-color="#E6BE69"/>
<stop offset="0.795" stop-color="#FFD87C"/>
<stop offset="0.91" stop-color="#B58F3E"/>
<stop offset="1" stop-color="#956D13"/>
</linearGradient>
<linearGradient id="paint14_linear_1853_2687" x1="52.5195" y1="59.3202" x2="57.5595" y2="59.3202" gradientUnits="userSpaceOnUse">
<stop offset="0.025" stop-color="#A47A1E"/>
<stop offset="0.19" stop-color="#D3A84C"/>
<stop offset="0.385" stop-color="#FFEC94"/>
<stop offset="0.58" stop-color="#E6BE69"/>
<stop offset="0.795" stop-color="#FFD87C"/>
<stop offset="0.91" stop-color="#B58F3E"/>
<stop offset="1" stop-color="#956D13"/>
</linearGradient>
<linearGradient id="paint15_linear_1853_2687" x1="66.9197" y1="35.9202" x2="70.5197" y2="35.9202" gradientUnits="userSpaceOnUse">
<stop offset="0.025" stop-color="#A47A1E"/>
<stop offset="0.19" stop-color="#D3A84C"/>
<stop offset="0.385" stop-color="#FFEC94"/>
<stop offset="0.58" stop-color="#E6BE69"/>
<stop offset="0.795" stop-color="#FFD87C"/>
<stop offset="0.91" stop-color="#B58F3E"/>
<stop offset="1" stop-color="#956D13"/>
</linearGradient>
<clipPath id="clip0_1853_2687">
<rect width="64.8" height="64.8" fill="white" transform="translate(8.59961 3.16016)"/>
</clipPath>
</defs>
</svg>
