<svg width="76" height="80" viewBox="0 0 76 80" fill="none" xmlns="http://www.w3.org/2000/svg">
<g filter="url(#filter0_d_2122_4313)">
<circle cx="37.5" cy="39.5" r="32.5" fill="#242424"/>
<circle cx="38" cy="39" r="25" fill="#FCFCFC"/>
<g filter="url(#filter1_d_2122_4313)">
<path d="M70.0397 34.4172C70.4714 37.5212 70.4773 40.5813 70.0553 43.6449C69.2066 49.8075 66.7534 55.2672 62.7402 59.9943C57.5036 66.1624 50.8792 69.9924 42.8647 71.2283C36.3337 72.2355 30.0038 71.3853 24.0208 68.5165C17.4404 65.3613 12.4439 60.526 9.02908 54.063C7.10322 50.418 5.93316 46.5401 5.53671 42.4511C4.9747 36.6544 5.79795 31.0537 8.24908 25.7407C11.5281 18.6331 16.6981 13.3392 23.7042 9.85934C27.2531 8.09662 31.0224 7.05312 34.976 6.74914C44.5758 6.01104 52.9801 8.83963 60.0424 15.3985C65.4559 20.426 68.7705 26.6293 69.9598 33.9421C69.9832 34.0865 70.0113 34.2302 70.0397 34.4172ZM14.0448 41.3204C14.2915 44.2727 15.0781 47.0798 16.3957 49.7269C18.942 54.8419 22.823 58.5942 28.0344 60.9481C32.251 62.8528 36.6673 63.452 41.2394 62.8108C46.274 62.1048 50.7112 60.0445 54.353 56.5038C60.2291 50.7907 62.6489 43.7809 61.55 35.6653C60.7204 29.5387 57.8388 24.455 53.0239 20.5596C47.9215 16.4317 42.0481 14.7043 35.5052 15.2942C32.5882 15.5572 29.815 16.359 27.2015 17.6675C22.0103 20.2667 18.2288 24.2317 15.9115 29.5569C14.2913 33.2803 13.6447 37.1757 14.0448 41.3204ZM36.5518 14.0896C37.0552 14.0911 37.5646 14.1271 38.0605 14.1051C39.8512 14.0259 41.5974 14.2848 43.3335 14.6631C43.672 14.7369 43.8252 14.6677 43.9168 14.3106C44.341 12.6565 44.7942 11.0099 45.2358 9.36026C45.4338 8.62071 45.4319 8.62271 44.6966 8.4686C41.7877 7.85891 38.8548 7.56648 35.8812 7.78552C34.1593 7.91237 32.4552 8.15007 30.7706 8.53394C30.3756 8.62395 30.232 8.7568 30.3568 9.19701C30.8358 10.8866 31.2855 12.5849 31.7197 14.2866C31.8191 14.6761 31.964 14.7745 32.3599 14.6729C33.7031 14.3285 35.0789 14.1867 36.5518 14.0896ZM14.9274 49.1961C14.5776 48.3732 14.2242 47.5503 13.9892 46.6861C13.888 46.3139 13.7143 46.2468 13.3519 46.3472C11.6766 46.8116 9.99401 47.25 8.31399 47.6976C7.74103 47.8502 7.71942 47.8868 7.90168 48.4755C8.28183 49.7033 8.74167 50.9005 9.26668 52.074C10.6809 55.2351 12.5863 58.0666 14.9469 60.5971C15.1803 60.8472 15.345 60.8993 15.6156 60.624C16.892 59.325 18.1796 58.0367 19.4836 56.7655C19.7749 56.4815 19.7134 56.322 19.4671 56.0604C17.5768 54.0534 16.1023 51.7673 14.9274 49.1961ZM20.6307 20.9284C20.7786 20.8012 20.9295 20.6772 21.0741 20.5463C23.7418 18.1323 26.7829 16.357 30.2076 15.2561C30.6911 15.1006 30.7509 14.8902 30.6259 14.4445C30.1698 12.8167 29.7393 11.1816 29.3177 9.54452C29.2093 9.12371 29.0755 8.96202 28.5871 9.11559C24.596 10.3704 20.984 12.3173 17.7597 14.9791C17.1618 15.4726 16.5532 15.9629 16.056 16.5805C16.1036 16.6514 16.1316 16.7114 16.1755 16.7556C17.5279 18.1177 18.8815 19.4787 20.2367 20.8381C20.3272 20.9289 20.4218 21.0318 20.6307 20.9284ZM12.9197 36.8964C13.0007 35.8419 13.1499 34.797 13.4008 33.7697C13.4911 33.3996 13.4175 33.2229 13.0123 33.1206C11.3418 32.6991 9.68046 32.2415 8.01675 31.7935C7.36771 31.6187 7.36773 31.614 7.23004 32.2823C6.65504 35.0733 6.33895 37.8833 6.51984 40.7407C6.63713 42.5936 6.89708 44.4216 7.28172 46.2357C7.36834 46.6443 7.53352 46.7675 7.95768 46.6487C9.61693 46.1839 11.2811 45.7353 12.9519 45.3138C13.4199 45.1957 13.5256 45.0118 13.4147 44.5389C12.8314 42.0518 12.6933 39.5299 12.9197 36.8964ZM41.1592 63.9524C38.1991 64.3084 35.2574 64.2247 32.346 63.551C31.9885 63.4682 31.8584 63.5638 31.7708 63.8999C31.3156 65.6448 30.8481 67.3865 30.3701 69.1253C30.2828 69.443 30.3262 69.627 30.6794 69.6738C30.8075 69.6908 30.9318 69.735 31.0589 69.7618C34.3551 70.4566 37.6769 70.7084 41.0355 70.3474C42.3288 70.2084 43.6109 70.003 44.8804 69.722C45.1476 69.6628 45.4193 69.625 45.2981 69.1904C44.805 67.4219 44.339 65.6456 43.8767 63.8686C43.7963 63.5598 43.6527 63.4971 43.3536 63.5598C42.6547 63.7065 41.9487 63.8195 41.1592 63.9524ZM16.5224 26.0276C17.3398 24.6718 18.2871 23.4122 19.3655 22.2545C19.6403 21.9595 19.674 21.7691 19.357 21.461C18.1091 20.2481 16.8931 19.0024 15.6591 17.7751C15.5274 17.6441 15.4258 17.4597 15.0921 17.4043C15.0016 17.5215 14.8841 17.6996 14.7414 17.8547C12.612 20.1701 10.8707 22.7485 9.52527 25.5902C8.83586 27.0464 8.25486 28.5468 7.79771 30.094C7.70997 30.391 7.72405 30.5693 8.07732 30.6609C9.82419 31.1134 11.5689 31.5751 13.3076 32.0579C13.6782 32.1608 13.8183 32.0717 13.9272 31.7101C14.5257 29.7223 15.3985 27.8558 16.5224 26.0276ZM20.5211 65.2954C23.1825 67.0594 26.0469 68.3759 29.1075 69.2502C29.1676 69.1671 29.2099 69.1324 29.2215 69.0894C29.7254 67.221 30.2221 65.3506 30.7327 63.484C30.8131 63.1899 30.669 63.1209 30.4389 63.0472C29.4468 62.7295 28.4683 62.3756 27.5217 61.9358C25.1122 60.816 22.9105 59.3842 20.969 57.5668C20.6547 57.2726 20.4569 57.2597 20.1415 57.5846C18.9171 58.846 17.6712 60.0871 16.4106 61.3125C16.0881 61.6261 16.132 61.8099 16.4384 62.0886C17.7051 63.2409 19.0355 64.3094 20.5211 65.2954ZM59.6894 26.8275C60.5763 28.3861 61.3137 30.0098 61.8241 31.7321C61.8959 31.9744 61.9417 32.1881 62.3097 32.0862C64.0952 31.5916 65.8867 31.1186 67.6788 30.6479C67.9813 30.5685 68.0632 30.4419 67.9663 30.1282C67.6352 29.0556 67.2667 27.9978 66.8364 26.9609C65.4129 23.5308 63.4245 20.4645 60.9012 17.7431C60.4724 17.2806 60.4641 17.2854 60.0336 17.7156C58.8372 18.911 57.6416 20.1072 56.4469 21.3043C55.954 21.7981 55.9568 21.7981 56.4274 22.3124C57.6729 23.6734 58.7513 25.1559 59.6894 26.8275ZM62.6585 46.4299C62.3531 46.4189 61.9748 46.014 61.7858 46.6119C60.6493 50.2076 58.7895 53.3818 56.2088 56.1316C55.9734 56.3824 55.9593 56.5733 56.218 56.8274C57.4487 58.0362 58.6628 59.262 59.8877 60.4768C60.4126 60.9974 60.4256 60.9991 60.9248 60.4581C63.752 57.3942 65.9003 53.912 67.3297 49.9939C67.578 49.3132 67.8663 48.6391 67.9787 47.8613C66.2152 47.3877 64.4743 46.9203 62.6585 46.4299ZM48.6877 16.5189C51.0954 17.6648 53.2407 19.1985 55.2107 21.0277C56.5975 19.6407 57.9318 18.3091 59.2623 16.9736C59.7071 16.5271 59.705 16.5199 59.2266 16.0759C55.7084 12.8111 51.6344 10.5125 47.058 9.09143C46.8957 9.04102 46.726 8.94966 46.5212 9.03621C46.481 9.14691 46.4281 9.26522 46.3947 9.38879C45.9366 11.0833 45.4976 12.7833 45.0145 14.4706C44.8807 14.9378 45.0281 15.1075 45.4504 15.2317C46.5444 15.5535 47.5998 15.98 48.6877 16.5189ZM58.9997 61.112C57.8409 59.9481 56.6725 58.7936 55.5298 57.6141C55.233 57.3079 55.0335 57.3124 54.7305 57.594C52.0195 60.1132 48.8908 61.9205 45.3578 63.0198C44.9653 63.1419 44.8523 63.2919 44.9706 63.7102C45.4346 65.3513 45.8636 67.0024 46.2993 68.6515C46.4736 69.3113 46.4707 69.3148 47.1126 69.1168C50.9317 67.9392 54.4152 66.1227 57.5302 63.6159C58.2471 63.039 58.9786 62.4708 59.5842 61.7731C59.4394 61.5013 59.226 61.3463 58.9997 61.112ZM64.8593 32.5496C64.1846 32.7306 63.515 32.9347 62.8335 33.0844C62.3828 33.1834 62.2752 33.369 62.3728 33.8318C63.134 37.4427 63.1314 41.0574 62.306 44.658C62.2007 45.117 62.3778 45.2195 62.743 45.3145C64.3475 45.7319 65.9485 46.1627 67.5494 46.5941C68.3162 46.8007 68.3531 46.7843 68.5132 45.9994C69.0863 43.1905 69.4143 40.3653 69.2251 37.4879C69.1053 35.6668 68.8567 33.8703 68.4915 32.0852C68.4162 31.7175 68.2881 31.6055 67.8994 31.7213C66.9186 32.0136 65.9238 32.2593 64.8593 32.5496Z" fill="url(#paint0_linear_2122_4313)"/>
<path d="M37.9376 12.7844C37.8866 13.098 37.7704 13.3223 37.4371 13.2766C37.1043 13.2309 37.0759 12.9495 37.0628 12.7067C37.0108 11.7465 37.0776 10.777 36.8014 9.8356C36.7474 9.65136 36.6967 9.45825 36.5963 9.29574C36.3587 8.91099 36.0635 8.90376 35.802 9.27361C35.6331 9.51248 35.4504 9.72532 35.1334 9.54126C34.8446 9.37365 34.8867 9.09354 34.9953 8.8343C35.1892 8.37159 35.6053 8.19351 36.0838 8.12443C36.5515 8.05691 36.9044 8.27329 37.1963 8.59101C37.292 8.69517 37.3619 8.82043 37.443 8.93514C37.6926 8.91535 37.6988 8.69212 37.8212 8.57673C38.2014 8.21821 38.6536 8.0412 39.1842 8.15017C39.6629 8.24849 39.9485 8.56279 40.0585 9.00876C40.1172 9.24696 40.0876 9.47469 39.8062 9.57801C39.578 9.66179 39.4053 9.56393 39.2988 9.37179C39.1827 9.16246 39.0649 8.94597 38.7657 9.00632C38.4936 9.06118 38.4044 9.29997 38.3354 9.51504C37.9985 10.5658 37.9594 11.6511 37.9376 12.7844Z" fill="url(#paint1_linear_2122_4313)"/>
<path d="M12.2687 53.7848C12.0749 54.0293 12.2994 54.2215 12.2984 54.4412C12.2972 54.6848 12.2996 54.9302 12.0399 54.9864C11.8131 55.0355 11.6975 54.8459 11.626 54.6311C11.6107 54.5851 11.5991 54.5376 11.5842 54.4914C11.0929 52.9707 11.1102 52.9 12.2291 51.8846C12.4111 51.7194 12.618 51.5869 12.8192 51.8086C13.0209 52.0309 12.9058 52.2607 12.7496 52.4585C12.6448 52.5912 12.5318 52.716 12.4262 52.84C12.5041 53.0737 12.6855 53.0727 12.8324 53.1193C13.2152 53.2409 13.6083 53.3265 13.9847 53.4679C14.343 53.6025 14.604 53.6266 14.6999 53.1113C14.7367 52.9138 14.9015 52.7747 15.1084 52.8275C15.3404 52.8866 15.3436 53.1133 15.3086 53.3037C15.2256 53.7544 15.4292 53.9295 15.7866 54.0062C15.9441 54.04 16.1017 54.0996 16.2454 54.1784C16.382 54.2533 16.4906 54.3827 16.4297 54.5749C16.369 54.7667 16.2353 54.8582 16.049 54.8316C15.9762 54.8212 15.9036 54.8005 15.834 54.7745C15.3949 54.6111 14.9681 54.454 14.8285 55.1976C14.8017 55.3406 14.6454 55.4205 14.5002 55.3693C14.3222 55.3064 14.2175 55.137 14.2814 54.9488C14.4968 54.3135 14.1036 54.241 13.7137 54.1505C13.2384 54.0402 12.7878 53.8153 12.2687 53.7848Z" fill="url(#paint2_linear_2122_4313)"/>
<path d="M23.8672 12.5915C23.8746 12.8697 23.862 13.1053 23.8992 13.3326C23.9447 13.6098 23.9845 13.875 24.4144 13.818C24.7513 13.7733 24.9443 14.1145 24.7375 14.3866C24.4759 14.7308 24.679 14.8877 24.891 15.0823C25.1242 15.2965 25.3841 15.4666 25.6757 15.5901C25.9443 15.7039 26.1513 15.8845 25.9959 16.2003C25.8466 16.5037 25.5812 16.3915 25.3478 16.3002C24.7284 16.0581 24.2254 15.6381 23.7155 15.1884C23.7732 15.7412 23.9303 16.2631 23.8709 16.8042C23.851 16.9844 23.8375 17.1668 23.7988 17.3432C23.7485 17.5727 23.629 17.7628 23.3597 17.7032C23.1103 17.6479 23.0097 17.4286 23.057 17.2043C23.1385 16.8179 23.1014 16.445 23.0251 16.07C22.9737 15.8174 22.9227 15.6084 22.5503 15.6668C22.2109 15.72 22.0184 15.3835 22.2318 15.1163C22.4618 14.8282 22.3287 14.681 22.1368 14.495C21.8715 14.238 21.5614 14.0582 21.2278 13.9093C21.0051 13.81 20.8036 13.6594 20.9066 13.3785C21.0188 13.0723 21.2857 13.0886 21.5311 13.1802C22.1872 13.4252 22.742 13.8237 23.2169 14.4527C23.2963 14.1132 23.1692 13.8903 23.1233 13.6617C23.034 13.2164 23.0272 12.7772 23.1086 12.3278C23.1609 12.0392 23.2353 11.7708 23.5715 11.8088C23.896 11.8454 23.8835 12.1403 23.8749 12.3959C23.8732 12.4457 23.8711 12.4954 23.8672 12.5915Z" fill="url(#paint3_linear_2122_4313)"/>
<path d="M7.22112 40.6835C7.37685 40.3466 7.16469 40.1702 7.06528 39.9669C6.61058 39.0369 6.87 38.2696 7.74139 37.9969C8.44104 37.778 9.16176 37.8471 9.87205 37.7821C10.2204 37.7503 10.3864 37.6508 10.4624 37.1924C10.5889 36.4306 11.171 36.0295 11.7169 36.2331C12.2193 36.4204 12.5128 37.2519 12.2619 37.9242C12.1189 38.3071 12.0743 38.5606 12.4104 38.8162C12.5979 38.9587 12.7129 39.2249 12.7484 39.5104C12.7786 39.7532 12.6809 39.9178 12.5082 40.0213C12.3416 40.1213 12.2238 40.0399 12.0947 39.891C11.5112 39.218 10.8883 38.6597 10.0091 38.7683C9.35332 38.8493 8.68771 38.7556 8.03375 38.9068C7.87292 38.944 7.71367 38.992 7.68225 39.2196C7.65197 39.4391 7.78094 39.5659 7.91287 39.6778C8.27198 39.9825 8.67752 40.0784 9.10509 40.0525C9.55698 40.0252 10.008 39.9773 10.4599 39.9504C10.702 39.936 10.9349 39.9982 10.962 40.3548C10.989 40.7106 10.7795 40.8267 10.5306 40.8557C9.80337 40.9406 9.07595 41.0237 8.34817 41.1015C8.05186 41.1332 7.80535 41.2136 7.73197 41.6409C7.68921 41.89 7.59613 42.1677 7.31608 42.0691C7.04168 41.9725 6.93437 41.6972 6.99352 41.3686C7.03379 41.1449 7.13207 40.9366 7.22112 40.6835Z" fill="url(#paint4_linear_2122_4313)"/>
<path d="M39.0677 67.7334C39.1874 67.2988 39.115 66.9527 38.8447 66.6068C38.4735 66.1318 38.654 65.8097 39.2936 65.7453C39.5955 65.715 39.9033 65.7279 40.2084 65.729C40.5243 65.7302 40.8018 65.8348 40.8212 66.1426C40.8386 66.4179 40.6105 66.5575 40.3076 66.5872C40.2325 66.5945 40.1608 66.6294 40.0957 66.6492C40.1127 68.6043 39.3884 69.4477 37.7403 69.4178C36.3546 69.3925 35.5083 68.3486 35.6188 66.8C35.5979 66.7697 35.5835 66.7219 35.5539 66.7123C35.2531 66.6148 34.8531 66.5754 34.9206 66.1755C34.9886 65.7736 35.3863 65.7728 35.7367 65.7624C35.9397 65.7564 36.1458 65.7519 36.3462 65.7758C37.0299 65.8575 37.1656 66.1086 36.841 66.6648C36.4036 67.4139 36.5894 68.0573 37.3389 68.3892C38.0007 68.6823 38.5482 68.4848 39.0677 67.7334Z" fill="url(#paint5_linear_2122_4313)"/>
<path d="M40.3001 64.9871C40.6373 65.0366 40.8693 65.1375 40.814 65.3873C40.758 65.6407 40.4995 65.7184 40.1785 65.7184C38.6338 65.7187 37.0892 65.7231 35.5445 65.7257C35.235 65.7262 34.9317 65.6689 34.914 65.4032C34.8938 65.1007 35.225 65.0385 35.5494 65.0341C37.1165 65.0128 38.6839 64.9979 40.3001 64.9871Z" fill="url(#paint6_linear_2122_4313)"/>
<path d="M13.5199 25.2065C13.5361 24.7831 13.6568 24.5027 14.0481 24.4596C14.2231 24.4403 14.3054 24.3175 14.3006 24.122C14.2987 24.0474 14.3011 23.9726 14.3016 23.8979C14.3068 23.1004 14.6645 22.7741 15.3815 22.9177C15.5318 22.9478 15.6751 23.0075 15.7035 23.2039C15.7345 23.4185 15.6236 23.5849 15.4555 23.6004C14.9985 23.6426 14.9389 23.9167 14.9681 24.3605C14.9955 24.776 14.8931 25.1726 14.3982 25.198C14.2491 25.2056 14.1943 25.3199 14.1941 25.4747C14.1938 25.6689 14.1918 25.863 14.1914 26.0572C14.1907 26.3643 14.0753 26.5892 13.7904 26.6347C13.4898 26.6827 13.3796 26.8599 13.3972 27.1815C13.4069 27.3595 13.3912 27.5395 13.3834 27.7185C13.3753 27.9061 13.2929 28.0344 13.1194 28.0533C12.9652 28.0701 12.8513 27.975 12.8202 27.8137C12.7234 27.3125 12.7484 26.8052 12.7978 26.3005C12.81 26.1757 12.9049 26.0681 13.0113 26.0559C13.4739 26.0026 13.5609 25.6788 13.5199 25.2065Z" fill="url(#paint7_linear_2122_4313)"/>
<path d="M11.9643 26.6189C11.9517 26.7885 11.9527 26.9262 11.9191 27.0526C11.8732 27.2248 11.7584 27.3327 11.5888 27.3144C11.4377 27.2981 11.3392 27.1812 11.3248 27.0214C11.2849 26.5772 11.2529 26.1303 11.3002 25.6846C11.327 25.432 11.4704 25.2717 11.6975 25.2562C12.0181 25.2343 12.0898 25.0383 12.0809 24.7199C12.0602 23.979 12.067 23.9743 12.6847 23.7048C12.8195 23.646 12.8793 23.564 12.8661 23.4066C12.8575 23.3036 12.849 23.1994 12.8534 23.0964C12.8839 22.3661 13.2816 22.0308 13.9395 22.1813C14.0915 22.2161 14.2225 22.2873 14.2307 22.4925C14.2392 22.7056 14.1275 22.8698 13.962 22.8785C13.4642 22.9045 13.4744 23.2658 13.5026 23.6556C13.5337 24.0856 13.4139 24.3957 12.9842 24.4438C12.7801 24.4667 12.7109 24.5888 12.7147 24.802C12.7185 25.0097 12.7088 25.2178 12.7024 25.4256C12.6946 25.6842 12.5758 25.8678 12.3476 25.8894C11.9196 25.9299 11.8952 26.2169 11.9643 26.6189Z" fill="url(#paint8_linear_2122_4313)"/>
<path d="M22.5222 64.2054C22.8267 63.6444 23.1136 63.1074 23.4103 62.5791C23.5123 62.3975 23.6216 62.1903 23.8425 62.2585C24.0493 62.3223 23.9759 62.5774 24.034 62.7533C24.2027 62.7435 24.395 62.572 24.5232 62.8327C24.6537 63.0979 24.4926 63.288 24.3883 63.4808C24.0919 64.0287 23.8112 64.5867 23.5964 65.1941C23.5089 65.4414 23.457 65.6655 23.6274 65.9007C23.7372 66.0523 23.7337 66.2372 23.6028 66.3816C23.483 66.5138 23.3529 66.4721 23.2406 66.3638C22.8562 65.9929 22.3815 65.8383 21.9731 65.5176C21.6406 65.2565 21.5107 64.8032 21.7158 64.1723C21.9578 63.4279 22.3448 62.7893 22.7287 62.1558C22.954 61.784 23.1135 61.453 22.8599 60.9929C22.7285 60.7543 22.8547 60.6056 23.0664 60.5694C23.453 60.5032 23.6089 60.6644 23.6596 61.1353C23.6958 61.4709 23.6324 61.7589 23.4818 62.0278C23.1994 62.5322 22.915 63.0349 22.6352 63.5416C22.45 63.8772 22.3167 64.2437 22.2223 64.7188C22.3941 64.5685 22.4234 64.3726 22.5222 64.2054Z" fill="url(#paint9_linear_2122_4313)"/>
<path d="M61.0306 27.7822C60.6918 26.7319 60.2331 25.7938 59.5084 25.0123C59.3191 24.8082 59.1821 24.5613 59.3983 24.3252C59.6215 24.0814 59.8725 24.2725 60.0067 24.4564C60.2931 24.8488 60.5449 24.7493 60.8797 24.5288C61.4249 24.1696 61.9983 23.8556 62.5651 23.5325C62.8336 23.3795 62.9822 23.2034 62.8438 22.8638C62.7923 22.7374 62.7932 22.572 62.8163 22.4326C62.8664 22.1307 63.1204 22.0542 63.3377 22.266C63.3936 22.3205 63.4487 22.3922 63.4695 22.4664C63.7749 23.5548 64.3712 24.4674 65.0621 25.3271C65.199 25.4975 65.2743 25.7264 65.0773 25.8985C64.882 26.0691 64.6475 25.9656 64.5338 25.7926C64.2335 25.336 63.925 25.4811 63.5756 25.7008C63.0765 26.0147 62.5737 26.3239 62.0583 26.6076C61.701 26.8042 61.4616 27.0107 61.6781 27.4729C61.764 27.6565 61.7547 27.8743 61.5595 27.9959C61.3368 28.1345 61.1703 28.0162 61.0306 27.7822ZM63.1805 25.0737C63.4693 24.916 63.6899 24.7408 63.4743 24.3508C63.254 23.9526 63.0046 24.0935 62.7287 24.2643C62.2429 24.5651 61.748 24.8503 61.2619 25.1507C61.0158 25.3027 60.7582 25.4457 60.9729 25.8327C61.1944 26.2322 61.4624 26.0898 61.7298 25.9371C62.1979 25.6698 62.6575 25.3866 63.1805 25.0737Z" fill="url(#paint10_linear_2122_4313)"/>
<path d="M60.5789 53.015C60.7063 53.0575 60.8022 53.0901 60.9538 53.1415C60.8672 52.8988 60.7427 52.7229 60.7517 52.5092C60.7696 52.0857 61.1432 51.7165 61.6195 51.6935C62.2115 51.6649 62.7086 51.9792 62.6935 52.441C62.6818 52.7986 62.8389 52.9846 63.2251 53.103C63.5633 53.2067 63.8485 53.3885 64.0868 53.6183C64.557 54.0714 64.5834 54.5675 64.1532 54.9824C63.6818 55.437 63.119 55.5041 62.4897 55.1957C61.9173 54.9151 61.5013 54.4936 61.0303 54.1206C60.7776 53.9205 60.5724 53.6633 60.2225 53.586C60.1077 53.619 60.1019 53.6856 60.0877 53.7487C60.0455 53.9363 59.9764 54.124 59.6904 54.0959C59.3899 54.0662 59.2972 53.8707 59.2886 53.646C59.2686 53.1208 59.8246 52.8388 60.5789 53.015ZM61.2792 53.3527C61.5558 53.8078 62.053 54.0967 62.4872 54.4286C62.7308 54.6149 63.0172 54.8071 63.3999 54.6637C63.5687 54.6005 63.676 54.4758 63.6568 54.3266C63.6136 53.9902 63.3053 53.8281 62.9752 53.7037C62.4514 53.5063 61.8941 53.4014 61.2792 53.3527ZM61.613 52.6431C61.7737 52.7175 61.8766 52.6738 61.9003 52.5292C61.9173 52.4251 61.8372 52.3577 61.7117 52.3725C61.5427 52.3925 61.4791 52.4745 61.613 52.6431Z" fill="url(#paint11_linear_2122_4313)"/>
<path d="M54.7872 13.8528C54.9541 14.2153 54.8008 14.3803 54.5226 14.4033C54.2788 14.4235 54.0861 14.5454 53.8763 14.6528C53.6211 14.7836 53.5247 14.9709 53.5207 15.2865C53.5106 16.0951 52.9843 16.7847 52.3 16.9394C51.5639 17.1057 50.8757 16.6903 50.549 15.8825C50.2668 15.1846 50.4764 14.3516 51.0573 13.8621C51.5355 13.4591 51.6582 13.031 51.4524 12.4008C51.3827 12.1873 51.3079 11.9783 51.5324 11.8506C51.7591 11.7217 51.9134 11.889 52.0483 12.078C52.2346 12.339 52.2257 12.6436 52.2006 12.9437C52.1723 13.282 52.2247 13.5461 52.5658 13.639C52.6168 13.6529 52.6703 13.6858 52.7075 13.7268C53.1178 14.1793 53.52 14.1468 53.9738 13.7747C54.211 13.5803 54.5144 13.5772 54.7872 13.8528ZM51.1258 15.3749C51.2834 15.9779 51.557 16.217 52.0519 16.1845C52.467 16.1572 52.7762 15.8454 52.8272 15.4025C52.8971 14.7955 52.6101 14.3607 52.1023 14.3044C51.499 14.2374 51.1707 14.5709 51.1258 15.3749Z" fill="url(#paint12_linear_2122_4313)"/>
<path d="M49.6869 62.0155C49.7372 61.838 49.8461 61.7625 49.9825 61.7495C50.1988 61.7288 50.3644 61.6495 50.4846 61.4525C50.5797 61.2968 50.7364 61.2506 50.9038 61.3362C51.0803 61.4265 51.1199 61.6181 51.0409 61.7566C50.7671 62.2366 51.0401 62.5962 51.2377 62.9901C51.4825 63.4782 51.6972 63.9821 52.0226 64.4236C52.152 64.5992 52.2677 64.7893 52.5375 64.8406C52.2465 64.4145 52.0641 63.9342 51.805 63.4925C51.6189 63.1752 51.4446 62.8497 51.2828 62.5187C51.1849 62.3184 51.1807 62.0984 51.3885 61.9634C51.6299 61.8066 51.7739 61.9988 51.8789 62.1764C52.1931 62.7081 52.4823 63.2553 52.7994 63.785C52.9389 64.0182 53.0993 64.247 53.3628 64.3699C52.8584 63.6824 52.4934 62.9144 52.0897 62.17C51.9656 61.9413 51.8436 61.6766 52.1365 61.5104C52.4127 61.3536 52.5695 61.6099 52.6824 61.8085C53.0031 62.3729 53.3249 62.9358 53.6941 63.4689C53.8758 63.731 54.0587 63.9626 54.4405 63.831C54.6247 63.7675 54.782 63.8834 54.8418 64.0816C54.9005 64.2762 54.7698 64.3923 54.6371 64.4833C54.0896 64.8587 53.5368 65.226 52.9855 65.5956C52.6268 65.8362 52.1694 65.7447 51.7879 65.3038C51.5755 65.0583 51.4161 64.9078 51.0652 65.0859C50.7694 65.236 50.5074 65.0429 50.3276 64.777C50.0385 64.3497 50.0285 63.8605 50.0315 63.3665C50.0339 62.9541 50.1691 62.4986 49.7065 62.2175C49.676 62.1989 49.6887 62.106 49.6869 62.0155Z" fill="url(#paint13_linear_2122_4313)"/>
<path d="M67.0712 36.398C67.335 36.5563 67.4738 36.8145 67.5875 37.0849C68.282 38.7372 68.3715 40.4108 67.6528 42.0934C67.481 42.4955 67.2478 42.7932 66.8425 42.6171C66.7075 42.5584 66.5983 42.6673 66.4799 42.7211C65.9363 42.9682 65.4872 42.7871 65.1335 42.1824C64.308 40.7711 64.2259 38.3559 64.9634 36.8517C65.1317 36.5083 65.3572 36.2456 65.7138 36.3809C65.8676 36.4392 65.9918 36.3333 66.1252 36.2762C66.4407 36.1412 66.7482 36.1217 67.0712 36.398ZM65.3398 39.163C65.3452 39.4245 65.2834 39.6992 65.4603 39.9964C66.1229 39.5741 66.6804 39.8801 67.167 40.705C67.2546 40.0442 67.417 39.5547 67.1487 38.9707C66.4818 39.4734 65.9526 39.0917 65.5052 38.4404C65.3307 38.6436 65.3628 38.8624 65.3398 39.163ZM65.9391 41.5767C66.1716 41.7097 66.2571 41.5507 66.2634 41.2821C66.267 41.124 66.1803 40.9847 66.0635 41.0146C65.8512 41.0689 65.8072 41.2672 65.9391 41.5767ZM66.4691 37.3915C66.2641 37.557 66.2826 37.7553 66.4345 37.9489C66.5178 38.0549 66.6264 38.0194 66.6799 37.9004C66.7857 37.6647 66.7688 37.4633 66.4691 37.3915Z" fill="url(#paint14_linear_2122_4313)"/>
</g>
</g>
<defs>
<filter id="filter0_d_2122_4313" x="-4" y="0" width="84" height="86" filterUnits="userSpaceOnUse" color-interpolation-filters="sRGB">
<feFlood flood-opacity="0" result="BackgroundImageFix"/>
<feColorMatrix in="SourceAlpha" type="matrix" values="0 0 0 0 0 0 0 0 0 0 0 0 0 0 0 0 0 0 127 0" result="hardAlpha"/>
<feOffset dy="4"/>
<feGaussianBlur stdDeviation="2"/>
<feComposite in2="hardAlpha" operator="out"/>
<feColorMatrix type="matrix" values="0 0 0 0 0 0 0 0 0 0 0 0 0 0 0 0 0 0 0.25 0"/>
<feBlend mode="normal" in2="BackgroundImageFix" result="effect1_dropShadow_2122_4313"/>
<feBlend mode="normal" in="SourceGraphic" in2="effect1_dropShadow_2122_4313" result="shape"/>
</filter>
<filter id="filter1_d_2122_4313" x="2.36768" y="5.63477" width="71" height="71" filterUnits="userSpaceOnUse" color-interpolation-filters="sRGB">
<feFlood flood-opacity="0" result="BackgroundImageFix"/>
<feColorMatrix in="SourceAlpha" type="matrix" values="0 0 0 0 0 0 0 0 0 0 0 0 0 0 0 0 0 0 127 0" result="hardAlpha"/>
<feOffset dy="2"/>
<feGaussianBlur stdDeviation="1.5"/>
<feComposite in2="hardAlpha" operator="out"/>
<feColorMatrix type="matrix" values="0 0 0 0 0 0 0 0 0 0 0 0 0 0 0 0 0 0 0.75 0"/>
<feBlend mode="normal" in2="BackgroundImageFix" result="effect1_dropShadow_2122_4313"/>
<feBlend mode="normal" in="SourceGraphic" in2="effect1_dropShadow_2122_4313" result="shape"/>
</filter>
<linearGradient id="paint0_linear_2122_4313" x1="5.36768" y1="39.1348" x2="70.3677" y2="39.1348" gradientUnits="userSpaceOnUse">
<stop offset="0.025" stop-color="#A47A1E"/>
<stop offset="0.19" stop-color="#D3A84C"/>
<stop offset="0.385" stop-color="#FFEC94"/>
<stop offset="0.58" stop-color="#E6BE69"/>
<stop offset="0.795" stop-color="#FFD87C"/>
<stop offset="0.91" stop-color="#B58F3E"/>
<stop offset="1" stop-color="#956D13"/>
</linearGradient>
<linearGradient id="paint1_linear_2122_4313" x1="34.9131" y1="10.6973" x2="40.0835" y2="10.6973" gradientUnits="userSpaceOnUse">
<stop offset="0.025" stop-color="#A47A1E"/>
<stop offset="0.19" stop-color="#D3A84C"/>
<stop offset="0.385" stop-color="#FFEC94"/>
<stop offset="0.58" stop-color="#E6BE69"/>
<stop offset="0.795" stop-color="#FFD87C"/>
<stop offset="0.91" stop-color="#B58F3E"/>
<stop offset="1" stop-color="#956D13"/>
</linearGradient>
<linearGradient id="paint2_linear_2122_4313" x1="11.2766" y1="53.5382" x2="16.4471" y2="53.5382" gradientUnits="userSpaceOnUse">
<stop offset="0.025" stop-color="#A47A1E"/>
<stop offset="0.19" stop-color="#D3A84C"/>
<stop offset="0.385" stop-color="#FFEC94"/>
<stop offset="0.58" stop-color="#E6BE69"/>
<stop offset="0.795" stop-color="#FFD87C"/>
<stop offset="0.91" stop-color="#B58F3E"/>
<stop offset="1" stop-color="#956D13"/>
</linearGradient>
<linearGradient id="paint3_linear_2122_4313" x1="20.8789" y1="14.7597" x2="26.0494" y2="14.7597" gradientUnits="userSpaceOnUse">
<stop offset="0.025" stop-color="#A47A1E"/>
<stop offset="0.19" stop-color="#D3A84C"/>
<stop offset="0.385" stop-color="#FFEC94"/>
<stop offset="0.58" stop-color="#E6BE69"/>
<stop offset="0.795" stop-color="#FFD87C"/>
<stop offset="0.91" stop-color="#B58F3E"/>
<stop offset="1" stop-color="#956D13"/>
</linearGradient>
<linearGradient id="paint4_linear_2122_4313" x1="6.84473" y1="39.135" x2="12.7538" y2="39.135" gradientUnits="userSpaceOnUse">
<stop offset="0.025" stop-color="#A47A1E"/>
<stop offset="0.19" stop-color="#D3A84C"/>
<stop offset="0.385" stop-color="#FFEC94"/>
<stop offset="0.58" stop-color="#E6BE69"/>
<stop offset="0.795" stop-color="#FFD87C"/>
<stop offset="0.91" stop-color="#B58F3E"/>
<stop offset="1" stop-color="#956D13"/>
</linearGradient>
<linearGradient id="paint5_linear_2122_4313" x1="34.9131" y1="67.5719" x2="40.8222" y2="67.5719" gradientUnits="userSpaceOnUse">
<stop offset="0.025" stop-color="#A47A1E"/>
<stop offset="0.19" stop-color="#D3A84C"/>
<stop offset="0.385" stop-color="#FFEC94"/>
<stop offset="0.58" stop-color="#E6BE69"/>
<stop offset="0.795" stop-color="#FFD87C"/>
<stop offset="0.91" stop-color="#B58F3E"/>
<stop offset="1" stop-color="#956D13"/>
</linearGradient>
<linearGradient id="paint6_linear_2122_4313" x1="34.9131" y1="65.3564" x2="40.8222" y2="65.3564" gradientUnits="userSpaceOnUse">
<stop offset="0.025" stop-color="#A47A1E"/>
<stop offset="0.19" stop-color="#D3A84C"/>
<stop offset="0.385" stop-color="#FFEC94"/>
<stop offset="0.58" stop-color="#E6BE69"/>
<stop offset="0.795" stop-color="#FFD87C"/>
<stop offset="0.91" stop-color="#B58F3E"/>
<stop offset="1" stop-color="#956D13"/>
</linearGradient>
<linearGradient id="paint7_linear_2122_4313" x1="12.7542" y1="25.47" x2="15.7087" y2="25.47" gradientUnits="userSpaceOnUse">
<stop offset="0.025" stop-color="#A47A1E"/>
<stop offset="0.19" stop-color="#D3A84C"/>
<stop offset="0.385" stop-color="#FFEC94"/>
<stop offset="0.58" stop-color="#E6BE69"/>
<stop offset="0.795" stop-color="#FFD87C"/>
<stop offset="0.91" stop-color="#B58F3E"/>
<stop offset="1" stop-color="#956D13"/>
</linearGradient>
<linearGradient id="paint8_linear_2122_4313" x1="11.2766" y1="24.7312" x2="14.2312" y2="24.7312" gradientUnits="userSpaceOnUse">
<stop offset="0.025" stop-color="#A47A1E"/>
<stop offset="0.19" stop-color="#D3A84C"/>
<stop offset="0.385" stop-color="#FFEC94"/>
<stop offset="0.58" stop-color="#E6BE69"/>
<stop offset="0.795" stop-color="#FFD87C"/>
<stop offset="0.91" stop-color="#B58F3E"/>
<stop offset="1" stop-color="#956D13"/>
</linearGradient>
<linearGradient id="paint9_linear_2122_4313" x1="21.6174" y1="63.5097" x2="24.572" y2="63.5097" gradientUnits="userSpaceOnUse">
<stop offset="0.025" stop-color="#A47A1E"/>
<stop offset="0.19" stop-color="#D3A84C"/>
<stop offset="0.385" stop-color="#FFEC94"/>
<stop offset="0.58" stop-color="#E6BE69"/>
<stop offset="0.795" stop-color="#FFD87C"/>
<stop offset="0.91" stop-color="#B58F3E"/>
<stop offset="1" stop-color="#956D13"/>
</linearGradient>
<linearGradient id="paint10_linear_2122_4313" x1="59.2881" y1="25.1005" x2="65.1972" y2="25.1005" gradientUnits="userSpaceOnUse">
<stop offset="0.025" stop-color="#A47A1E"/>
<stop offset="0.19" stop-color="#D3A84C"/>
<stop offset="0.385" stop-color="#FFEC94"/>
<stop offset="0.58" stop-color="#E6BE69"/>
<stop offset="0.795" stop-color="#FFD87C"/>
<stop offset="0.91" stop-color="#B58F3E"/>
<stop offset="1" stop-color="#956D13"/>
</linearGradient>
<linearGradient id="paint11_linear_2122_4313" x1="59.2881" y1="53.5382" x2="64.4585" y2="53.5382" gradientUnits="userSpaceOnUse">
<stop offset="0.025" stop-color="#A47A1E"/>
<stop offset="0.19" stop-color="#D3A84C"/>
<stop offset="0.385" stop-color="#FFEC94"/>
<stop offset="0.58" stop-color="#E6BE69"/>
<stop offset="0.795" stop-color="#FFD87C"/>
<stop offset="0.91" stop-color="#B58F3E"/>
<stop offset="1" stop-color="#956D13"/>
</linearGradient>
<linearGradient id="paint12_linear_2122_4313" x1="50.4246" y1="14.3904" x2="54.8564" y2="14.3904" gradientUnits="userSpaceOnUse">
<stop offset="0.025" stop-color="#A47A1E"/>
<stop offset="0.19" stop-color="#D3A84C"/>
<stop offset="0.385" stop-color="#FFEC94"/>
<stop offset="0.58" stop-color="#E6BE69"/>
<stop offset="0.795" stop-color="#FFD87C"/>
<stop offset="0.91" stop-color="#B58F3E"/>
<stop offset="1" stop-color="#956D13"/>
</linearGradient>
<linearGradient id="paint13_linear_2122_4313" x1="49.6858" y1="63.5096" x2="54.8562" y2="63.5096" gradientUnits="userSpaceOnUse">
<stop offset="0.025" stop-color="#A47A1E"/>
<stop offset="0.19" stop-color="#D3A84C"/>
<stop offset="0.385" stop-color="#FFEC94"/>
<stop offset="0.58" stop-color="#E6BE69"/>
<stop offset="0.795" stop-color="#FFD87C"/>
<stop offset="0.91" stop-color="#B58F3E"/>
<stop offset="1" stop-color="#956D13"/>
</linearGradient>
<linearGradient id="paint14_linear_2122_4313" x1="64.4585" y1="39.5043" x2="68.1517" y2="39.5043" gradientUnits="userSpaceOnUse">
<stop offset="0.025" stop-color="#A47A1E"/>
<stop offset="0.19" stop-color="#D3A84C"/>
<stop offset="0.385" stop-color="#FFEC94"/>
<stop offset="0.58" stop-color="#E6BE69"/>
<stop offset="0.795" stop-color="#FFD87C"/>
<stop offset="0.91" stop-color="#B58F3E"/>
<stop offset="1" stop-color="#956D13"/>
</linearGradient>
</defs>
</svg>
